<svg version="1.1" xmlns="http://www.w3.org/2000/svg" viewBox="-47.47668781923654 -11.837364110973157 93.79967965282196 27.31492777086863" fill="none" stroke="black" stroke-width="0.6%" vector-effect="non-scaling-stroke">
    <path d="M -20.22691 4.8872 L -44.91459 0.61963 L -44.91459 1.08173 L -20.22691 5.3493" />
    <path d="M -20.22691 4.8872 L -20.22691 5.3493" />
    <path d="M -19.53933 4.75465 L -44.22701 0.48708 A 4 0.73019 360 0 1 -45.47669 -0.04312 A 4 0.73019 360 0 1 -44.54808 -0.51091 L -44.38112 -0.54519 L -36.47394 -2.06951 L -36.10633 -2.13201 A 4 0.73019 360 0 1 -30.81919 -2.09765 L -6.13151 2.16993 A 4 0.73019 360 0 1 -4.88183 2.70013 A 4 0.73019 360 0 1 -5.81044 3.16791 L -5.9774 3.20219 L -13.88458 4.72652 L -14.25219 4.78901 A 4 0.73019 360 0 1 -19.53933 4.75465 Z" />
    <path d="M -5.44393 2.03738 L -30.13161 -2.2302" />
    <path d="M -5.44393 2.03738 A 5 0.91274 360 0 1 -3.88183 2.70013 A 5 0.91274 360 0 1 -5.04259 3.28486 L -5.04259 3.74696 L -5.25129 3.78981 L -13.15847 5.31414 L -13.61798 5.39225 A 5 0.91274 360 0 1 -20.22691 5.3493" />
    <path d="M -5.04259 3.28486 L -5.25129 3.32771 L -5.25129 3.78981" />
    <path d="M -13.15847 4.85203 L -5.25129 3.32771" />
    <path d="M -13.15847 4.85203 L -13.61798 4.93015 L -13.61798 5.39225" />
    <path d="M -13.61798 4.93015 A 5 0.91274 360 0 1 -20.22691 4.8872" />
    <path d="M -44.91459 0.61963 A 5 0.91274 360 0 1 -46.47669 -0.04312 A 5 0.91274 360 0 1 -45.31593 -0.62785 L -45.10723 -0.67071 L -37.20005 -2.19503 L -36.74054 -2.27315 A 5 0.91274 360 0 1 -30.13161 -2.2302" />
    <path d="M -6.13151 2.63203 A 4 0.73019 360 0 1 -5.08736 2.93118" />
    <path d="M -6.13151 2.63203 L -30.81919 -1.63554" />
    <path d="M -36.10633 -1.6699 A 4 0.73019 360 0 1 -30.81919 -1.63554" />
    <path d="M -36.47394 -1.60741 L -36.10633 -1.6699" />
    <path d="M -44.38112 -0.08309 L -36.47394 -1.60741" />
    <path d="M -44.54808 -0.0488 L -44.38112 -0.08309" />
    <path d="M -45.27116 0.18793 A 4 0.73019 360 0 1 -44.54808 -0.0488" />
    <path d="M -3.88183 3.16223 A 5 0.91274 360 0 1 -5.04259 3.74696" />
    <path d="M -44.91459 1.08173 A 5 0.91274 360 0 1 -46.47669 0.41898 L -46.47669 -0.04312" />
    <path d="M -6.13151 2.16993 L -6.13151 2.63203" />
    <path d="M -30.81919 -2.09765 L -30.81919 -1.63554" />
    <path d="M -13.15847 4.85203 L -13.15847 5.31414" />
    <path d="M -44.54808 -0.51091 L -44.54808 -0.0488" />
    <path d="M -36.10633 -2.13201 L -36.10633 -1.6699" />
    <path d="M -44.38112 -0.54519 L -44.38112 -0.08309" />
    <path d="M -36.47394 -2.06951 L -36.47394 -1.60741" />
    <path d="M -44.91459 1.60282 L -20.22691 5.8704 A 5 0.91274 180 0 0 -13.3815 5.87561 L -13.3815 5.4135 L -13.15847 5.37313 L -5.25129 3.8488 L -4.84904 3.76079 A 5 0.91274 180 0 0 -3.88183 3.22122 A 5 0.91274 180 0 0 -3.88445 3.19172" />
    <path d="M -44.91459 1.60282 L -44.91459 1.14072" />
    <path d="M -20.22691 5.40829 L -44.91459 1.14072" />
    <path d="M -20.22691 5.8704 L -20.22691 5.40829 A 5 0.91274 180 0 0 -13.3815 5.4135" />
    <path d="M -44.38112 0.43801 L -44.43155 0.44904" />
    <path d="M -36.47394 -1.08632 L -44.38112 0.43801 L -44.38112 -0.0241 L -44.70292 0.04632 A 4 0.73019 180 0 0 -45.21338 0.21742" />
    <path d="M -36.29552 -1.11862 L -36.47394 -1.08632 L -36.47394 -1.54842" />
    <path d="M -30.81919 -1.11445 A 4 0.73019 180 0 0 -36.29552 -1.11862 L -36.29552 -1.58072 L -36.47394 -1.54842" />
    <path d="M -6.13151 3.15312 L -30.81919 -1.11445 L -30.81919 -1.57655 A 4 0.73019 180 0 0 -36.29552 -1.58072" />
    <path d="M -5.9253 3.19149 A 4 0.73019 180 0 0 -6.13151 3.15312 L -6.13151 2.69102" />
    <path d="M -46.47669 0.94007 A 5 0.91274 180 0 0 -44.91459 1.60282" />
    <path d="M -13.3815 5.87561 L -13.15847 5.83523 L -13.15847 5.37313" />
    <path d="M -13.15847 5.83523 L -5.25129 4.31091 L -5.25129 3.8488" />
    <path d="M -5.25129 4.31091 L -4.84904 4.22289 L -4.84904 3.76079" />
    <path d="M -4.84904 4.22289 A 5 0.91274 180 0 0 -3.88183 3.68332" />
    <path d="M -46.47408 0.44848 A 5 0.91274 180 0 0 -46.47669 0.47797 A 5 0.91274 180 0 0 -44.91459 1.14072" />
    <path d="M -44.38112 -0.0241 L -36.47394 -1.54842" />
    <path d="M -30.81919 -1.57655 L -6.13151 2.69102" />
    <path d="M -5.14514 2.96067 A 4 0.73019 180 0 0 -6.13151 2.69102" />
    <path d="M -44.70292 0.38853 L -44.70292 0.04632" />
    <path d="M -20.22691 13.24437 L -44.91459 8.9768 A 5 0.91274 360 0 1 -46.47669 8.31405 A 5 0.91274 360 0 1 -45.31593 7.72932 L -45.10723 7.68647 L -37.20005 6.16214 L -36.74054 6.08403 A 5 0.91274 360 0 1 -30.13161 6.12698" />
    <path d="M -20.22691 13.24437 L -20.22691 13.70648" />
    <path d="M -44.91459 9.4389 L -20.22691 13.70648" />
    <path d="M -44.91459 8.9768 L -44.91459 9.4389 A 5 0.91274 360 0 1 -46.47669 8.77615 L -46.47669 8.31405" />
    <path d="M -19.53933 13.11182 L -44.22701 8.84425 A 4 0.73019 360 0 1 -45.47669 8.31405 A 4 0.73019 360 0 1 -44.54808 7.84627 L -44.54808 8.30837 L -44.38112 8.27409 L -36.47394 6.74976 L -36.10633 6.68727 A 4 0.73019 360 0 1 -30.81919 6.72163" />
    <path d="M -14.25219 13.14618 A 4 0.73019 360 0 1 -19.53933 13.11182" />
    <path d="M -13.88458 13.08369 L -14.25219 13.14618" />
    <path d="M -5.9774 11.55937 L -13.88458 13.08369" />
    <path d="M -5.81044 11.52508 L -5.9774 11.55937" />
    <path d="M -6.13151 10.5271 A 4 0.73019 360 0 1 -4.88183 11.0573 A 4 0.73019 360 0 1 -5.81044 11.52508" />
    <path d="M -30.81919 6.25953 L -6.13151 10.5271 L -6.13151 10.9892 A 4 0.73019 360 0 1 -5.08736 11.28835" />
    <path d="M -36.10633 6.22517 A 4 0.73019 360 0 1 -30.81919 6.25953 L -30.81919 6.72163" />
    <path d="M -36.47394 6.28766 L -36.10633 6.22517 L -36.10633 6.68727" />
    <path d="M -44.38112 7.81198 L -36.47394 6.28766 L -36.47394 6.74976" />
    <path d="M -44.54808 7.84627 L -44.38112 7.81198 L -44.38112 8.27409" />
    <path d="M -5.44393 10.39455 L -30.13161 6.12698" />
    <path d="M -5.44393 10.39455 A 5 0.91274 360 0 1 -3.88183 11.0573 A 5 0.91274 360 0 1 -5.04259 11.64203 L -5.04259 12.10413 L -5.25129 12.14698 L -13.15847 13.67131 L -13.61798 13.74943 A 5 0.91274 360 0 1 -20.22691 13.70648" />
    <path d="M -5.04259 11.64203 L -5.25129 11.68488 L -5.25129 12.14698" />
    <path d="M -13.15847 13.20921 L -5.25129 11.68488" />
    <path d="M -13.15847 13.20921 L -13.61798 13.28732 L -13.61798 13.74943" />
    <path d="M -13.61798 13.28732 A 5 0.91274 360 0 1 -20.22691 13.24437" />
    <path d="M -6.13151 10.9892 L -30.81919 6.72163" />
    <path d="M -45.27116 8.5451 A 4 0.73019 360 0 1 -44.54808 8.30837" />
    <path d="M -3.88183 11.5194 A 5 0.91274 360 0 1 -5.04259 12.10413" />
    <path d="M -13.15847 13.20921 L -13.15847 13.67131" />
    <path d="M -13.3815 14.23278 L -13.3815 13.77068 L -13.15847 13.7303 L -5.25129 12.20598 L -4.84904 12.11796 A 5 0.91274 180 0 0 -3.88183 11.57839 A 5 0.91274 180 0 0 -3.88445 11.5489" />
    <path d="M -20.22691 14.22757 A 5 0.91274 180 0 0 -13.3815 14.23278 L -13.15847 14.1924 L -5.25129 12.66808 L -5.25129 12.20598" />
    <path d="M -20.22691 13.76547 A 5 0.91274 180 0 0 -13.3815 13.77068" />
    <path d="M -44.91459 9.96 L -20.22691 14.22757 L -20.22691 13.76547 L -44.91459 9.4979" />
    <path d="M -13.15847 14.1924 L -13.15847 13.7303" />
    <path d="M -44.38112 8.79518 L -44.43155 8.80621" />
    <path d="M -36.47394 7.27086 L -44.38112 8.79518 L -44.38112 8.33308 L -44.70292 8.40349 A 4 0.73019 180 0 0 -45.21338 8.5746" />
    <path d="M -36.29552 7.23855 L -36.47394 7.27086 L -36.47394 6.80875" />
    <path d="M -30.81919 7.24272 A 4 0.73019 180 0 0 -36.29552 7.23855 L -36.29552 6.77645 L -36.47394 6.80875" />
    <path d="M -6.13151 11.5103 L -30.81919 7.24272 L -30.81919 6.78062 A 4 0.73019 180 0 0 -36.29552 6.77645" />
    <path d="M -5.9253 11.54867 A 4 0.73019 180 0 0 -6.13151 11.5103 L -6.13151 11.04819" />
    <path d="M -4.84904 12.58007 A 5 0.91274 180 0 0 -3.88183 12.0405" />
    <path d="M -46.47669 9.29725 A 5 0.91274 180 0 0 -44.91459 9.96 L -44.91459 9.4979" />
    <path d="M -5.25129 12.66808 L -4.84904 12.58007 L -4.84904 12.11796" />
    <path d="M -44.38112 8.33308 L -36.47394 6.80875" />
    <path d="M -30.81919 6.78062 L -6.13151 11.04819" />
    <path d="M -5.14514 11.31785 A 4 0.73019 180 0 0 -6.13151 11.04819" />
    <path d="M -46.47408 8.80565 A 5 0.91274 180 0 0 -46.47669 8.83515 A 5 0.91274 180 0 0 -44.91459 9.4979" />
    <path d="M -44.70292 8.74571 L -44.70292 8.40349" />
    <path d="M -20.22691 -3.46997 L -44.91459 -7.73755 A 5 0.91274 360 0 1 -46.47669 -8.4003 A 5 0.91274 360 0 1 -45.31593 -8.98503 L -45.10723 -9.02788 L -37.20005 -10.5522 L -36.74054 -10.63032 A 5 0.91274 360 0 1 -30.13161 -10.58737" />
    <path d="M -20.22691 -3.46997 L -20.22691 -3.00787" />
    <path d="M -44.91459 -7.27544 L -20.22691 -3.00787" />
    <path d="M -44.91459 -7.73755 L -44.91459 -7.27544 A 5 0.91274 360 0 1 -46.47669 -7.93819 L -46.47669 -8.4003" />
    <path d="M -19.53933 -3.60252 L -44.22701 -7.8701 A 4 0.73019 360 0 1 -45.47669 -8.4003 A 4 0.73019 360 0 1 -44.54808 -8.86808 L -44.54808 -8.40598 L -44.38112 -8.44026 L -36.47394 -9.96459 L -36.10633 -10.02708 A 4 0.73019 360 0 1 -30.81919 -9.99272" />
    <path d="M -14.25219 -3.56816 A 4 0.73019 360 0 1 -19.53933 -3.60252" />
    <path d="M -13.88458 -3.63066 L -14.25219 -3.56816" />
    <path d="M -5.9774 -5.15498 L -13.88458 -3.63066" />
    <path d="M -5.81044 -5.18926 L -5.9774 -5.15498" />
    <path d="M -6.13151 -6.18725 A 4 0.73019 360 0 1 -4.88183 -5.65705 A 4 0.73019 360 0 1 -5.81044 -5.18926" />
    <path d="M -30.81919 -10.45482 L -6.13151 -6.18725 L -6.13151 -5.72515 A 4 0.73019 360 0 1 -5.08736 -5.426" />
    <path d="M -36.10633 -10.48918 A 4 0.73019 360 0 1 -30.81919 -10.45482 L -30.81919 -9.99272" />
    <path d="M -36.47394 -10.42669 L -36.10633 -10.48918 L -36.10633 -10.02708" />
    <path d="M -44.38112 -8.90236 L -36.47394 -10.42669 L -36.47394 -9.96459" />
    <path d="M -44.54808 -8.86808 L -44.38112 -8.90236 L -44.38112 -8.44026" />
    <path d="M -5.44393 -6.3198 L -30.13161 -10.58737" />
    <path d="M -5.44393 -6.3198 A 5 0.91274 360 0 1 -3.88183 -5.65705 A 5 0.91274 360 0 1 -5.04259 -5.07232 L -5.04259 -4.61021 L -5.25129 -4.56736 L -13.15847 -3.04304 L -13.61798 -2.96492 A 5 0.91274 360 0 1 -20.22691 -3.00787" />
    <path d="M -5.04259 -5.07232 L -5.25129 -5.02946 L -5.25129 -4.56736" />
    <path d="M -13.15847 -3.50514 L -5.25129 -5.02946" />
    <path d="M -13.15847 -3.50514 L -13.61798 -3.42702 L -13.61798 -2.96492" />
    <path d="M -13.61798 -3.42702 A 5 0.91274 360 0 1 -20.22691 -3.46997" />
    <path d="M -6.13151 -5.72515 L -30.81919 -9.99272" />
    <path d="M -45.27116 -8.16924 A 4 0.73019 360 0 1 -44.54808 -8.40598" />
    <path d="M -3.88183 -5.19495 A 5 0.91274 360 0 1 -5.04259 -4.61021" />
    <path d="M -13.15847 -3.50514 L -13.15847 -3.04304" />
    <path d="M -44.91459 -6.75435 L -20.22691 -2.48678 A 5 0.91274 180 0 0 -13.3815 -2.48157 L -13.3815 -2.94367 L -13.15847 -2.98404 L -5.25129 -4.50837 L -4.84904 -4.59638 A 5 0.91274 180 0 0 -3.88183 -5.13595 L -3.88183 -4.67385" />
    <path d="M -44.91459 -6.75435 L -44.91459 -7.21645" />
    <path d="M -20.22691 -2.94888 L -44.91459 -7.21645" />
    <path d="M -20.22691 -2.48678 L -20.22691 -2.94888 A 5 0.91274 180 0 0 -13.3815 -2.94367" />
    <path d="M -44.38112 -7.91917 L -44.43155 -7.90813" />
    <path d="M -36.47394 -9.44349 L -44.38112 -7.91917 L -44.38112 -8.38127 L -44.70292 -8.31086 A 4 0.73019 180 0 0 -45.21338 -8.13975" />
    <path d="M -36.29552 -9.47579 L -36.47394 -9.44349 L -36.47394 -9.90559" />
    <path d="M -30.81919 -9.47162 A 4 0.73019 180 0 0 -36.29552 -9.47579 L -36.29552 -9.93789 L -36.47394 -9.90559" />
    <path d="M -6.13151 -5.20405 L -30.81919 -9.47162 L -30.81919 -9.93373 A 4 0.73019 180 0 0 -36.29552 -9.93789" />
    <path d="M -5.9253 -5.16568 A 4 0.73019 180 0 0 -6.13151 -5.20405 L -6.13151 -5.66615" />
    <path d="M -46.47669 -7.4171 A 5 0.91274 180 0 0 -44.91459 -6.75435" />
    <path d="M -13.3815 -2.48157 L -13.15847 -2.52194 L -13.15847 -2.98404" />
    <path d="M -13.15847 -2.52194 L -5.25129 -4.04627 L -5.25129 -4.50837" />
    <path d="M -5.25129 -4.04627 L -4.84904 -4.13428 L -4.84904 -4.59638" />
    <path d="M -4.84904 -4.13428 A 5 0.91274 180 0 0 -3.88183 -4.67385" />
    <path d="M -46.47408 -7.9087 A 5 0.91274 180 0 0 -46.47669 -7.8792 A 5 0.91274 180 0 0 -44.91459 -7.21645" />
    <path d="M -44.38112 -8.38127 L -36.47394 -9.90559" />
    <path d="M -30.81919 -9.93373 L -6.13151 -5.66615" />
    <path d="M -5.14514 -5.3965 A 4 0.73019 180 0 0 -6.13151 -5.66615" />
    <path d="M -3.88183 -5.13595 A 5 0.91274 180 0 0 -3.88445 -5.16545" />
    <path d="M -44.70292 -7.96864 L -44.70292 -8.31086" />
    <path d="M -12.75465 8.26916 L -12.75465 8.14345 L 7.87276 4.16695" />
    <path d="M -12.75465 8.14345 L -13.48076 8.01794 L 7.14666 4.04144 L 7.87276 4.16695" />
    <path d="M -13.48076 8.14364 L -13.48076 8.01794" />
    <path d="M 7.87276 4.2997 L 7.87276 4.16695" />
    <path d="M 7.95869 11.84972 L -13.82455 8.08421" />
    <path d="M 7.95869 11.84972 L 7.95869 12.31182" />
    <path d="M 7.27111 12.44437 L 7.95869 12.31182" />
    <path d="M 7.27111 12.44437 L -14.51213 8.67886 L -14.51213 8.21676 L -13.82455 8.08421" />
    <path d="M 7.95869 11.84972 L 7.27111 11.98227 L 7.27111 12.44437" />
    <path d="M 7.27111 11.98227 L -14.51213 8.21676" />
    <path d="M 43.76089 7.07601 L 40.85646 6.57395" />
    <path d="M 44.35579 8.74044 A 5 0.91274 180 0 0 45.32299 8.20086" />
    <path d="M 43.95353 8.82845 L 44.35579 8.74044 L 44.35579 8.27833 A 5 0.91274 180 0 0 45.32299 7.73876 L 45.32299 8.20086" />
    <path d="M 42.06268 9.19296 L 43.95353 8.82845 L 43.95353 8.36635 L 44.35579 8.27833" />
    <path d="M 41.33658 9.06744 L 42.06268 9.19296" />
    <path d="M 44.11746 7.96981 A 4 0.73019 180 0 0 43.19285 7.69221" />
    <path d="M 40.16888 6.8322 L 40.16888 6.70649 L 40.85646 6.57395" />
    <path d="M 45.32299 7.73876 A 5 0.91274 180 0 0 43.76089 7.07601" />
    <path d="M 42.06268 8.73086 L 43.95353 8.36635" />
    <path d="M 42.06268 8.73086 L 41.33658 8.60534 L 41.33658 9.06744" />
    <path d="M 41.33658 8.60534 L 43.22742 8.24083 L 43.54923 8.17042 A 4 0.73019 180 0 0 44.32299 7.73876 A 4 0.73019 180 0 0 43.07331 7.20856 L 40.16888 6.70649" />
    <path d="M 42.06268 8.73086 L 42.06268 9.19296" />
    <path d="M 17.66411 11.23894 L 23.68044 10.07913 L 23.68044 9.61703" />
    <path d="M 17.44108 11.27932 L 17.66411 11.23894 L 17.66411 10.77684 L 23.68044 9.61703" />
    <path d="M 15.66977 11.47385 A 5 0.91274 180 0 0 17.44108 11.27932 L 17.44108 10.81722 L 17.66411 10.77684" />
    <path d="M 8.57006 10.92396 L 8.97016 10.99312" />
    <path d="M 10.59567 10.81201 A 5 0.91274 180 0 0 17.44108 10.81722" />
    <path d="M 7.69123 10.30994 L 10.59567 10.81201" />
    <path d="M 7.69123 10.30994 L 7.69123 10.44805" />
    <path d="M 7.69123 10.30994 L 8.37881 10.17739 L 11.28325 10.67946 A 4 0.73019 180 0 0 16.75957 10.68363 L 16.938 10.65132 L 22.95433 9.49151 L 23.68044 9.61703" />
    <path d="M 14.04773 5.69536 L 14.04773 5.23326 L 13.36015 5.36581 A 4 0.73019 180 0 0 7.88382 5.36164 L 7.70539 5.39394 L -0.20178 6.91827 L -0.52359 6.98868 A 4 0.73019 180 0 0 -1.29735 7.42033 A 4 0.73019 180 0 0 -0.04767 7.95053 L -0.73525 8.08308" />
    <path d="M 14.04773 5.23326 A 5 0.91274 180 0 0 7.20232 5.22805 L 6.97929 5.26842 L -0.92789 6.79275 L -1.33015 6.88076 A 5 0.91274 180 0 0 -2.29735 7.42033 L -2.29735 7.88244 A 5 0.91274 180 0 0 -1.69977 8.31515" />
    <path d="M 13.36015 5.82791 L 14.04773 5.69536" />
    <path d="M 13.36015 5.82791 L 13.36015 5.36581" />
    <path d="M 13.36015 5.82791 A 4 0.73019 180 0 0 9.03026 5.68726" />
    <path d="M 7.37817 5.91913 L -0.20178 7.38037 L -0.20178 6.91827" />
    <path d="M -0.20178 7.38037 L -0.52359 7.45078 L -0.52359 6.98868" />
    <path d="M -0.52359 7.45078 A 4 0.73019 180 0 0 -1.09182 7.65139" />
    <path d="M -2.29735 7.42033 A 5 0.91274 180 0 0 -0.73525 8.08308" />
    <path d="M 7.88382 5.49229 L 7.88382 5.36164" />
    <path d="M 7.70539 5.52669 L 7.70539 5.39394" />
    <path d="M -0.04767 8.08328 L -0.04767 7.95053" />
    <path d="M -0.73525 8.20777 L -0.73525 8.08308" />
    <path d="M -2.29369 7.3854 L -9.6563 8.80474" />
    <path d="M 9.32498 4.41799 L 10.05109 4.5435 L -10.57633 8.52 L -11.30244 8.39449" />
    <path d="M 10.05109 4.98898 L 10.05109 4.5435" />
    <path d="M -10.57633 8.64571 L -10.57633 8.52" />
    <path d="M -11.30244 8.52019 L -11.30244 8.39449" />
    <path d="M 9.32498 4.41799 L -11.30244 8.39449" />
    <path d="M -12.3916 8.33191 L -12.3916 8.20621" />
    <path d="M 8.23582 4.22971 L -12.3916 8.20621" />
    <path d="M -11.66549 8.45743 L -11.66549 8.33173 L -12.3916 8.20621" />
    <path d="M 8.23582 4.22971 L 8.96193 4.35523 L 8.96193 4.48798" />
    <path d="M 8.96193 4.35523 L -11.66549 8.33173" />
    <path d="M 26.73744 11.17334 L 29.64187 11.67541 L 30.32945 11.54286 L 30.32945 11.08075 L 29.64187 11.2133" />
    <path d="M 29.64187 11.67541 L 29.64187 11.2133" />
    <path d="M 26.73744 10.71124 L 29.64187 11.2133" />
    <path d="M 25.17534 10.51059 A 5 0.91274 180 0 0 26.73744 11.17334 L 26.73744 10.71124" />
    <path d="M 27.22503 10.01856 L 26.9491 10.07893 L 26.9491 9.61683 A 4 0.73019 180 0 0 26.17534 10.04849 A 4 0.73019 180 0 0 27.42502 10.57869 L 30.32945 11.08075" />
    <path d="M 26.9491 10.07893 A 4 0.73019 180 0 0 26.38087 10.27954" />
    <path d="M 26.14255 9.50891 A 5 0.91274 180 0 0 25.17534 10.04849 L 25.17534 10.51059" />
    <path d="M 25.17534 10.04849 A 5 0.91274 180 0 0 26.73744 10.71124" />
    <path d="M 26.5448 9.4209 L 26.14255 9.50891" />
    <path d="M 28.43565 9.05639 L 26.5448 9.4209" />
    <path d="M 28.43565 9.05639 L 29.16176 9.18191 L 29.16176 9.35269" />
    <path d="M 29.16176 9.18191 L 27.27091 9.54642 L 26.9491 9.61683" />
    <path d="M 27.27091 9.7172 L 27.27091 9.54642" />
    <path d="M 23.15018 7.84577 L 21.4148 7.54579" />
    <path d="M 19.20661 7.32936 A 4 0.73019 180 0 0 15.77761 7.51382 L 15.77761 7.05171 L 15.59919 7.08401 L 9.58286 8.24383 L 8.85675 8.11831" />
    <path d="M 15.77761 7.51382 L 15.59919 7.54612 L 15.59919 7.08401" />
    <path d="M 15.59919 7.54612 L 9.58286 8.70593 L 9.58286 8.24383" />
    <path d="M 8.85675 8.58041 L 9.58286 8.70593" />
    <path d="M 8.85675 8.58041 L 8.85675 8.11831" />
    <path d="M 14.87308 6.9585 L 8.85675 8.11831" />
    <path d="M 15.09611 6.91812 L 14.87308 6.9585" />
    <path d="M 21.94152 6.92333 A 5 0.91274 180 0 0 15.09611 6.91812" />
    <path d="M 24.84595 7.4254 L 21.94152 6.92333" />
    <path d="M 24.84595 7.4254 L 24.84595 7.68441" />
    <path d="M 24.84595 7.4254 L 24.15837 7.55795 L 21.25394 7.05588 A 4 0.73019 180 0 0 15.77761 7.05171" />
    <path d="M 24.15837 7.55795 L 24.15837 7.73189" />
    <path d="M 7.20599 11.7196 L 7.20599 11.5939 L 6.47988 11.46838 A 4 0.73019 180 0 0 7.57545 10.96631 A 4 0.73019 180 0 0 6.50271 10.46869 L 6.32577 10.43611 L -2.02447 8.99267 L -2.41018 8.93393 A 4 0.73019 180 0 0 -7.67923 9.0208 L -8.40534 8.89529" />
    <path d="M 7.95869 11.86756 A 5 0.91274 180 0 0 8.57545 11.42842" />
    <path d="M 7.20599 11.5939 A 5 0.91274 180 0 0 8.57545 10.96631 L 8.57545 11.42842" />
    <path d="M 8.57545 10.96631 A 5 0.91274 180 0 0 7.23453 10.34428 L 7.01335 10.30356 L -1.33689 8.86012 L -1.81903 8.78669 A 5 0.91274 180 0 0 -8.40534 8.89529" />
    <path d="M 6.47988 11.59408 L 6.47988 11.46838" />
    <path d="M 7.36992 11.19736 A 4 0.73019 180 0 0 6.50271 10.93079 L 6.50271 10.46869" />
    <path d="M 6.50271 10.93079 L 6.32577 10.89822 L 6.32577 10.43611" />
    <path d="M 6.32577 10.89822 L -2.02447 9.45477 L -2.02447 8.99267" />
    <path d="M -2.02447 9.45477 L -2.41018 9.39603 L -2.41018 8.93393" />
    <path d="M -2.41018 9.39603 A 4 0.73019 180 0 0 -6.59187 9.33447" />
    <path d="M -7.67923 9.14651 L -7.67923 9.0208" />
    <path d="M -8.40534 9.02099 L -8.40534 8.89529" />
    <path d="M 8.52182 3.90204 L 8.52182 3.77634 L 30.30506 7.54184" />
    <path d="M 8.52182 3.77634 L 9.2094 3.64379 L 30.99264 7.40929 L 30.30506 7.54184" />
    <path d="M 30.99264 7.54204 L 30.99264 7.40929" />
    <path d="M 30.30506 7.67459 L 30.30506 7.54184" />
    <path d="M 29.96127 7.60812 L 8.17803 3.84261" />
    <path d="M 29.96127 7.60812 L 29.96127 7.74086" />
    <path d="M 26.06181 7.64756 L 24.84595 7.43738" />
    <path d="M 15.73145 5.86182 L 14.04773 5.57077" />
    <path d="M 10.64921 4.98329 L 10.05109 4.8799" />
    <path d="M 7.49045 4.10086 L 7.49045 3.97516 L 8.17803 3.84261" />
    <path d="M 29.96127 7.60812 L 29.27369 7.74067 L 29.27369 7.83031" />
    <path d="M 29.27369 7.74067 L 7.49045 3.97516" />
    <path d="M 12.24836 13.30475 L 12.24836 12.84264" />
    <path d="M 14.99868 12.31244 L 12.24836 12.84264" />
    <path d="M 23.37634 13.2171 L 24.06392 13.08455" />
    <path d="M 23.37634 13.2171 L 21.37955 12.87193 L 21.37955 12.40983 L 20.99384 12.35108 A 4 0.73019 180 0 0 15.72479 12.43796 L 12.97447 12.96816 L 12.24836 12.84264" />
    <path d="M 21.37955 12.87193 L 20.99384 12.81319 L 20.99384 12.35108" />
    <path d="M 20.99384 12.81319 A 4 0.73019 180 0 0 15.72479 12.90006 L 15.72479 12.43796" />
    <path d="M 15.72479 12.90006 L 12.97447 13.43026 L 12.97447 12.96816" />
    <path d="M 12.24836 13.30475 L 12.97447 13.43026" />
    <path d="M 21.58499 12.20385 A 5 0.91274 180 0 0 14.99868 12.31244" />
    <path d="M 22.06713 12.27728 L 21.58499 12.20385" />
    <path d="M 24.06392 12.62245 L 22.06713 12.27728" />
    <path d="M 24.06392 12.62245 L 23.37634 12.755 L 23.37634 13.2171" />
    <path d="M 23.37634 12.755 L 21.37955 12.40983" />
    <path d="M 24.06392 12.62245 L 24.06392 13.08455" />
    <path d="M 19.86986 12.05583 L 25.01829 11.06333 L 25.01829 10.60123" />
    <path d="M 11.93352 12.25831 A 5 0.91274 180 0 0 14.13078 12.47976" />
    <path d="M 9.02908 11.75624 L 11.93352 12.25831 L 11.93352 11.7962 A 5 0.91274 180 0 0 18.77893 11.80142 L 19.00196 11.76104 L 25.01829 10.60123" />
    <path d="M 19.00196 12.02983 L 19.00196 11.76104" />
    <path d="M 18.77893 12.0277 L 18.77893 11.80142" />
    <path d="M 9.02908 11.29414 L 11.93352 11.7962" />
    <path d="M 9.02908 11.29414 L 9.02908 11.75624" />
    <path d="M 9.02908 11.29414 L 9.71666 11.16159 L 12.6211 11.66365 A 4 0.73019 180 0 0 18.09743 11.66782 L 18.27585 11.63552 L 24.29218 10.47571 L 25.01829 10.60123" />
    <path d="M 19.12997 6.33907 L 19.12997 6.11179 L 18.44239 6.24434 A 4 0.73019 180 0 0 12.96606 6.24017 L 12.78764 6.27247 L 4.88046 7.7968 L 4.55866 7.86721 A 4 0.73019 180 0 0 3.78489 8.29886 A 4 0.73019 180 0 0 5.03457 8.82906 L 4.34699 8.96161" />
    <path d="M 19.12997 6.11179 A 5 0.91274 180 0 0 12.28456 6.10658 L 12.06153 6.14695 L 4.15435 7.67128 L 3.7521 7.75929 A 5 0.91274 180 0 0 2.78489 8.29886 L 2.78489 8.76097 A 5 0.91274 180 0 0 4.34699 9.42372 L 4.34699 8.96161" />
    <path d="M 18.44239 6.3254 L 18.44239 6.24434" />
    <path d="M 15.21426 6.51167 A 4 0.73019 180 0 0 12.96606 6.70227 L 12.96606 6.24017" />
    <path d="M 12.96606 6.70227 L 12.78764 6.73457 L 12.78764 6.27247" />
    <path d="M 12.78764 6.73457 L 4.88046 8.2589 L 4.88046 7.7968" />
    <path d="M 4.88046 8.2589 L 4.55866 8.32931 L 4.55866 7.86721" />
    <path d="M 4.55866 8.32931 A 4 0.73019 180 0 0 3.99042 8.52991" />
    <path d="M 4.34699 9.42372 L 5.03457 9.29117 L 5.03457 8.82906" />
    <path d="M 2.78489 8.29886 A 5 0.91274 180 0 0 4.34699 8.96161" />
    <path d="M 32.02401 7.34321 L 32.02401 7.21047 L 10.24077 3.44496" />
    <path d="M 32.02401 7.21047 L 31.33643 7.34302 L 9.55319 3.57751 L 10.24077 3.44496" />
    <path d="M 31.33643 7.47576 L 31.33643 7.34302" />
    <path d="M 9.55319 3.70321 L 9.55319 3.57751" />
    <path d="M 32.3678 7.27694 L 32.3678 7.14419" />
    <path d="M 10.58456 3.37869 L 32.3678 7.14419" />
    <path d="M 10.58456 3.37869 L 10.58456 3.50439" />
    <path d="M 33.05538 7.15909 L 33.05538 7.01164 L 32.3678 7.14419" />
    <path d="M 10.58456 3.37869 L 11.27214 3.24614 L 33.05538 7.01164" />
    <path d="M 29.75469 7.90546 L 29.75469 7.78069" />
    <path d="M 32.50501 7.25049 L 29.75469 7.78069" />
    <path d="M 40.88267 8.15515 L 41.57025 8.0226" />
    <path d="M 40.88267 8.15515 L 39.02416 7.83388" />
    <path d="M 37.24191 7.63847 A 4 0.73019 180 0 0 33.23112 7.83811 L 33.23112 7.376 L 30.4808 7.9062 L 29.75469 7.78069" />
    <path d="M 33.23112 7.83811 L 31.40338 8.19045" />
    <path d="M 30.4808 8.03097 L 30.4808 7.9062" />
    <path d="M 39.09132 7.14189 A 5 0.91274 180 0 0 32.50501 7.25049" />
    <path d="M 39.57345 7.21532 L 39.09132 7.14189" />
    <path d="M 41.57025 7.56049 L 39.57345 7.21532" />
    <path d="M 41.57025 7.56049 L 40.88267 7.69304 L 40.88267 8.15515" />
    <path d="M 40.88267 7.69304 L 38.88587 7.34787 L 38.50016 7.28913 A 4 0.73019 180 0 0 33.23112 7.376" />
    <path d="M 41.57025 7.56049 L 41.57025 8.0226" />
    <path d="M 38.88587 7.53648 L 38.88587 7.34787" />
    <path d="M 38.50016 7.4698 L 38.50016 7.28913" />
    <path d="M 30.69727 8.7819 L 29.01693 8.49144 L 29.01693 8.02933 A 4 0.73019 180 0 0 23.5406 8.02516 L 23.36218 8.05747 L 17.34585 9.21728 L 16.61974 9.09176" />
    <path d="M 29.01693 8.49144 A 4 0.73019 180 0 0 24.94663 8.33234" />
    <path d="M 23.03495 8.58265 L 17.34585 9.67938 L 17.34585 9.21728" />
    <path d="M 16.61974 9.55386 L 17.34585 9.67938" />
    <path d="M 16.61974 9.55386 L 16.61974 9.09176" />
    <path d="M 22.63607 7.93195 L 16.61974 9.09176" />
    <path d="M 22.8591 7.89157 L 22.63607 7.93195" />
    <path d="M 29.70451 7.89678 A 5 0.91274 180 0 0 22.8591 7.89157" />
    <path d="M 32.60895 8.39885 L 29.70451 7.89678" />
    <path d="M 32.60895 8.39885 L 32.60895 8.5316" />
    <path d="M 32.60895 8.39885 L 31.92137 8.5314 L 29.01693 8.02933" />
    <path d="M 31.92137 8.5314 L 31.92137 8.65608" />
    <path d="M 23.5406 8.15582 L 23.5406 8.02516" />
    <path d="M 23.36218 8.19021 L 23.36218 8.05747" />
    <path d="M 21.68422 6.88182 L 21.68422 6.57469 L 20.99664 6.70724 A 4 0.73019 180 0 0 15.52031 6.70307 L 15.34188 6.73538 L 7.43471 8.2597 L 7.1129 8.33011 A 4 0.73019 180 0 0 6.33914 8.76177 A 4 0.73019 180 0 0 7.58882 9.29197 L 6.90124 9.42452" />
    <path d="M 21.68422 6.57469 A 5 0.91274 180 0 0 14.83881 6.56948 L 14.61578 6.60986 L 6.7086 8.13418 L 6.30634 8.2222 A 5 0.91274 180 0 0 5.33914 8.76177 L 5.33914 9.22387 A 5 0.91274 180 0 0 6.55483 9.82042" />
    <path d="M 20.99664 6.79489 L 20.99664 6.70724" />
    <path d="M 8.85675 8.44767 L 7.43471 8.7218 L 7.43471 8.2597" />
    <path d="M 7.43471 8.7218 L 7.1129 8.79221 L 7.1129 8.33011" />
    <path d="M 7.1129 8.79221 A 4 0.73019 180 0 0 6.54467 8.99282" />
    <path d="M 7.02576 9.86262 L 7.58882 9.75407 L 7.58882 9.29197" />
    <path d="M 5.33914 8.76177 A 5 0.91274 180 0 0 6.90124 9.42452" />
    <path d="M 15.52031 6.85361 L 15.52031 6.70307" />
    <path d="M 15.34188 6.87899 L 15.34188 6.73538" />
    <path d="M 6.90124 9.8528 L 6.90124 9.42452" />
    <path d="M 35.67234 6.96925 L 36.1495 6.87727 L 36.1495 6.41517 L 35.46192 6.54772" />
    <path d="M 35.11812 6.95039 L 35.28204 6.97873" />
    <path d="M 13.67867 2.90791 L 13.67867 2.78221 L 35.46192 6.54772" />
    <path d="M 13.67867 2.78221 L 14.36625 2.64966 L 36.1495 6.41517" />
    <path d="M 35.46192 6.97365 L 35.46192 6.54772" />
    <path d="M 34.08675 6.81282 L 12.30351 3.04731" />
    <path d="M 34.08675 6.81282 L 34.08675 7.04547" />
    <path d="M 11.61593 3.30556 L 11.61593 3.17986 L 12.30351 3.04731" />
    <path d="M 34.08675 6.81282 L 33.39917 6.94537 L 33.39917 7.11415" />
    <path d="M 33.39917 6.94537 L 11.61593 3.17986" />
    <path d="M 41.64055 7.0866 L 38.73612 6.58453" />
    <path d="M 43.199 8.24631 A 5 0.91274 180 0 0 43.20265 8.21145" />
    <path d="M 39.94235 9.20354 L 41.33658 8.93477" />
    <path d="M 39.21624 9.07803 L 39.94235 9.20354" />
    <path d="M 41.99712 7.9804 A 4 0.73019 180 0 0 41.57025 7.81741" />
    <path d="M 38.04854 7.03478 L 38.04854 6.71708 L 38.73612 6.58453" />
    <path d="M 42.23545 8.28892 A 5 0.91274 180 0 0 43.20265 7.74935 L 43.20265 8.21145" />
    <path d="M 43.20265 7.74935 A 5 0.91274 180 0 0 41.64055 7.0866" />
    <path d="M 41.83319 8.37693 L 42.23545 8.28892" />
    <path d="M 39.94235 8.74144 L 41.83319 8.37693" />
    <path d="M 39.94235 8.74144 L 39.21624 8.61593 L 39.21624 9.07803" />
    <path d="M 39.21624 8.61593 L 41.10708 8.25141 L 41.42889 8.181 A 4 0.73019 180 0 0 42.20265 7.74935 A 4 0.73019 180 0 0 40.95297 7.21915 L 38.04854 6.71708" />
    <path d="M 42.23545 8.43206 L 42.23545 8.28892" />
    <path d="M 41.83319 8.50961 L 41.83319 8.37693" />
    <path d="M 39.94235 8.74144 L 39.94235 9.20354" />
    <path d="M 34.36229 8.92119 L 39.02416 8.02249 L 39.02416 7.56038" />
    <path d="M 25.93938 9.21746 A 5 0.91274 180 0 0 26.91644 9.34926" />
    <path d="M 23.03495 8.7154 L 25.93938 9.21746 L 25.93938 8.75536 A 5 0.91274 180 0 0 32.7848 8.76057 L 33.00783 8.7202 L 39.02416 7.56038" />
    <path d="M 33.00783 8.91724 L 33.00783 8.7202" />
    <path d="M 32.7848 8.92308 L 32.7848 8.76057" />
    <path d="M 23.03495 8.25329 L 25.93938 8.75536" />
    <path d="M 23.03495 8.25329 L 23.03495 8.7154" />
    <path d="M 23.03495 8.25329 L 23.72253 8.12074 L 26.62697 8.62281 A 4 0.73019 180 0 0 32.10329 8.62698 L 32.28172 8.59468 L 38.29805 7.43487 L 39.02416 7.56038" />
    <path d="M -6.71723 8.68182 L -6.71723 8.30705 L -6.02965 8.1745 A 4 0.73019 180 0 0 -0.55332 8.17866 L -0.3749 8.14636 L 7.53228 6.62204 L 7.85408 6.55163 A 4 0.73019 180 0 0 8.62784 6.11997 A 4 0.73019 180 0 0 7.37817 5.58977 L 8.06575 5.45722" />
    <path d="M 0.12818 8.77436 L 0.12818 8.31226 L 0.35121 8.27188 L 8.25838 6.74755 L 8.66064 6.65954 A 5 0.91274 180 0 0 9.62784 6.11997 L 9.62784 6.58207" />
    <path d="M -0.9984 8.91863 A 5 0.91274 180 0 0 0.12818 8.77436 L 0.35121 8.73398 L 2.78852 8.26412" />
    <path d="M -6.71723 8.30705 A 5 0.91274 180 0 0 0.12818 8.31226" />
    <path d="M 0.35121 8.73398 L 0.35121 8.27188" />
    <path d="M 8.42232 6.35102 A 4 0.73019 180 0 0 7.37817 6.05187 L 7.37817 5.58977" />
    <path d="M 9.62422 6.61681 A 5 0.91274 180 0 0 9.62784 6.58207" />
    <path d="M 9.62784 6.11997 A 5 0.91274 180 0 0 8.06575 5.45722" />
    <path d="M 8.25838 6.88011 L 8.25838 6.74755" />
    <path d="M 8.66064 6.80257 L 8.66064 6.65954" />
    <path d="M 35.11812 6.98443 L 35.11812 6.61399 L 13.33488 2.84849" />
    <path d="M 35.11812 6.61399 L 34.43054 6.74654 L 12.6473 2.98104 L 13.33488 2.84849" />
    <path d="M 34.43054 7.02004 L 34.43054 6.74654" />
    <path d="M 12.6473 3.10674 L 12.6473 2.98104" />
    <path d="M 36.1495 6.75157 L 36.49329 6.81099 L 37.18087 6.67844 L 37.18087 6.21634 L 36.49329 6.34889" />
    <path d="M 36.49329 6.81099 L 36.49329 6.34889" />
    <path d="M 14.71004 2.58339 L 36.49329 6.34889" />
    <path d="M 14.71004 2.58339 L 14.71004 2.70909" />
    <path d="M 14.71004 2.58339 L 15.39762 2.45084 L 37.18087 6.21634" />
    <path d="M 27.22503 10.18815 L 27.22503 9.72604" />
    <path d="M 29.97535 9.19584 L 27.22503 9.72604" />
    <path d="M 38.35301 10.1005 L 39.04059 9.96795" />
    <path d="M 38.35301 10.1005 L 36.35622 9.75533 L 36.35622 9.29323 L 35.97051 9.23448 A 4 0.73019 180 0 0 30.70146 9.32136 L 27.95114 9.85156 L 27.22503 9.72604" />
    <path d="M 36.35622 9.75533 L 35.97051 9.69658 L 35.97051 9.23448" />
    <path d="M 35.97051 9.69658 A 4 0.73019 180 0 0 30.70146 9.78346 L 30.70146 9.32136" />
    <path d="M 30.70146 9.78346 L 27.95114 10.31366 L 27.95114 9.85156" />
    <path d="M 27.22503 10.18815 L 27.95114 10.31366" />
    <path d="M 36.56166 9.08725 A 5 0.91274 180 0 0 29.97535 9.19584" />
    <path d="M 37.0438 9.16068 L 36.56166 9.08725" />
    <path d="M 39.04059 9.50585 L 37.0438 9.16068" />
    <path d="M 39.04059 9.50585 L 38.35301 9.6384 L 38.35301 10.1005" />
    <path d="M 38.35301 9.6384 L 36.35622 9.29323" />
    <path d="M 39.04059 9.50585 L 39.04059 9.96795" />
    <path d="M 8.97016 11.36936 L 9.02908 11.37954" />
    <path d="M 24.95937 10.59104 L 24.95937 10.21434" />
    <path d="M 18.94304 11.37416 L 24.95937 10.21434" />
    <path d="M 18.94304 11.5069 L 18.94304 11.37416" />
    <path d="M 18.72001 11.5499 L 18.72001 11.41453 L 18.94304 11.37416" />
    <path d="M 11.8746 11.40932 A 5 0.91274 180 0 0 18.72001 11.41453" />
    <path d="M 8.97016 10.90725 L 11.8746 11.40932" />
    <path d="M 8.97016 10.90725 L 8.97016 11.36936" />
    <path d="M 8.97016 10.90725 L 9.65774 10.7747 L 12.56218 11.27677 A 4 0.73019 180 0 0 18.03851 11.28094 L 18.21693 11.24864 L 24.23326 10.08883 L 24.95937 10.21434" />
    <path d="M 5.1112 9.97475 L 5.1112 9.8502 L 5.79879 9.71765 A 4 0.73019 180 0 0 11.27511 9.72181 L 11.45354 9.68951 L 19.36072 8.16519 L 19.68252 8.09478 A 4 0.73019 180 0 0 20.45628 7.66312 A 4 0.73019 180 0 0 19.20661 7.13292 L 19.89419 7.00037" />
    <path d="M 11.95662 10.31751 L 11.95662 9.85541 L 12.17965 9.81503 L 20.08682 8.29071 L 20.48908 8.20269 A 5 0.91274 180 0 0 21.45628 7.66312 L 21.45628 8.12522" />
    <path d="M 10.27926 10.50591 A 5 0.91274 180 0 0 11.95662 10.31751 L 12.17965 10.27713 L 16.61974 9.42118" />
    <path d="M 5.1112 9.8502 A 5 0.91274 180 0 0 11.95662 9.85541" />
    <path d="M 12.17965 10.27713 L 12.17965 9.81503" />
    <path d="M 20.25075 7.89417 A 4 0.73019 180 0 0 19.20661 7.59502 L 19.20661 7.13292" />
    <path d="M 21.45263 8.16009 A 5 0.91274 180 0 0 21.45628 8.12522" />
    <path d="M 21.45628 7.66312 A 5 0.91274 180 0 0 19.89419 7.00037" />
    <path d="M 20.08682 8.42339 L 20.08682 8.29071" />
    <path d="M 20.48908 8.34584 L 20.48908 8.20269" />
    <path d="M 43.07331 7.54309 L 43.07331 7.20856" />
    <path d="M 10.59567 10.93684 L 10.59567 10.81201" />
    <path d="M 21.25394 7.40609 L 21.25394 7.05588" />
    <path d="M 40.95297 7.45379 L 40.95297 7.21915" />
    <path d="M 11.8746 11.53461 L 11.8746 11.40932" />
    <path d="M -3.88183 3.16223 L -3.88183 2.70013" />
    <path d="M -46.47669 0.47797 L -46.47669 0.94007" />
    <path d="M -3.88183 3.22122 L -3.88183 3.68332" />
    <path d="M -3.88183 11.5194 L -3.88183 11.0573" />
    <path d="M -46.47669 8.83515 L -46.47669 9.29725" />
    <path d="M -3.88183 11.57839 L -3.88183 12.0405" />
    <path d="M -3.88183 -5.19495 L -3.88183 -5.65705" />
    <path d="M -46.47669 -7.8792 L -46.47669 -7.4171" />
</svg>