<svg version="1.1" xmlns="http://www.w3.org/2000/svg" viewBox="-48.89976567330443 -12.302645120861827 97.79953134660886 27.37502408200332" fill="none" stroke="black" stroke-width="0.6%" vector-effect="non-scaling-stroke">
    <path d="M -22.59887 4.31412 L -46.46144 0.00915 L -46.46144 0.47166 L -22.59887 4.77663" />
    <path d="M -22.59887 4.31412 L -22.59887 4.77663" />
    <path d="M -21.88654 4.18937 L -45.7491 -0.11561 A 4 0.711 360 0 1 -46.89976 -0.61461 A 4 0.711 360 0 1 -45.8805 -1.08875 L -45.70713 -1.12108 L -37.51528 -2.55572 L -37.13603 -2.61427 A 4 0.711 360 0 1 -31.85858 -2.54826 L -7.99601 1.75671 A 4 0.711 360 0 1 -6.84535 2.25572 A 4 0.711 360 0 1 -7.86462 2.72985 L -8.03799 2.76219 L -16.22984 4.19683 L -16.60909 4.25538 A 4 0.711 360 0 1 -21.88654 4.18937 Z" />
    <path d="M -7.28368 1.63196 L -31.14625 -2.67301" />
    <path d="M -7.28368 1.63196 A 5 0.88875 360 0 1 -5.84535 2.25572 A 5 0.88875 360 0 1 -7.11944 2.84839 L -7.11944 3.3109 L -7.33615 3.35132 L -15.528 4.78596 L -16.00206 4.85915 A 5 0.88875 360 0 1 -22.59887 4.77663" />
    <path d="M -7.11944 2.84839 L -7.33615 2.8888 L -7.33615 3.35132" />
    <path d="M -15.528 4.32344 L -7.33615 2.8888" />
    <path d="M -15.528 4.32344 L -16.00206 4.39663 L -16.00206 4.85915" />
    <path d="M -16.00206 4.39663 A 5 0.88875 360 0 1 -22.59887 4.31412" />
    <path d="M -46.46144 0.00915 A 5 0.88875 360 0 1 -47.89976 -0.61461 A 5 0.88875 360 0 1 -46.62568 -1.20728 L -46.40897 -1.2477 L -38.21712 -2.68234 L -37.74305 -2.75552 A 5 0.88875 360 0 1 -31.14625 -2.67301" />
    <path d="M -7.99601 2.21923 A 4 0.711 360 0 1 -7.06285 2.48698" />
    <path d="M -7.99601 2.21923 L -31.85858 -2.08574" />
    <path d="M -37.13603 -2.15175 A 4 0.711 360 0 1 -31.85858 -2.08574" />
    <path d="M -37.51528 -2.09321 L -37.13603 -2.15175" />
    <path d="M -45.70713 -0.65856 L -37.51528 -2.09321" />
    <path d="M -45.8805 -0.62623 L -45.70713 -0.65856" />
    <path d="M -46.68226 -0.38335 A 4 0.711 360 0 1 -45.8805 -0.62623" />
    <path d="M -5.84535 2.71823 A 5 0.88875 360 0 1 -7.11944 3.3109" />
    <path d="M -46.46144 0.47166 A 5 0.88875 360 0 1 -47.89976 -0.1521 L -47.89976 -0.61461" />
    <path d="M -7.99601 1.75671 L -7.99601 2.21923" />
    <path d="M -31.85858 -2.54826 L -31.85858 -2.08574" />
    <path d="M -15.528 4.32344 L -15.528 4.78596" />
    <path d="M -45.8805 -1.08875 L -45.8805 -0.62623" />
    <path d="M -37.13603 -2.61427 L -37.13603 -2.15175" />
    <path d="M -45.70713 -1.12108 L -45.70713 -0.65856" />
    <path d="M -37.51528 -2.55572 L -37.51528 -2.09321" />
    <path d="M -46.46144 0.99322 L -22.59887 5.29819 A 5 0.88875 180 0 0 -15.75856 5.34544 L -15.75856 4.88292 L -15.528 4.845 L -7.33615 3.41036 L -6.91743 3.32719 A 5 0.88875 180 0 0 -5.84535 2.77728 A 5 0.88875 180 0 0 -5.84811 2.74776" />
    <path d="M -46.46144 0.99322 L -46.46144 0.53071" />
    <path d="M -22.59887 4.83568 L -46.46144 0.53071" />
    <path d="M -22.59887 5.29819 L -22.59887 4.83568 A 5 0.88875 180 0 0 -15.75856 4.88292" />
    <path d="M -45.70713 -0.137 L -45.78336 -0.12186" />
    <path d="M -37.51528 -1.57165 L -45.70713 -0.137 L -45.70713 -0.59952 L -46.04211 -0.53298 A 4 0.711 180 0 0 -46.62099 -0.35383" />
    <path d="M -37.33083 -1.60198 L -37.51528 -1.57165 L -37.51528 -2.03416" />
    <path d="M -31.85858 -1.56418 A 4 0.711 180 0 0 -37.33083 -1.60198 L -37.33083 -2.06449 L -37.51528 -2.03416" />
    <path d="M -7.99601 2.74079 L -31.85858 -1.56418 L -31.85858 -2.0267 A 4 0.711 180 0 0 -37.33083 -2.06449" />
    <path d="M -7.95927 2.7475 A 4 0.711 180 0 0 -7.99601 2.74079 L -7.99601 2.27827" />
    <path d="M -47.89976 0.36946 A 5 0.88875 180 0 0 -46.46144 0.99322" />
    <path d="M -15.75856 5.34544 L -15.528 5.30752 L -15.528 4.845" />
    <path d="M -15.528 5.30752 L -7.33615 3.87288 L -7.33615 3.41036" />
    <path d="M -7.33615 3.87288 L -6.91743 3.78971 L -6.91743 3.32719" />
    <path d="M -6.91743 3.78971 A 5 0.88875 180 0 0 -5.84535 3.23979" />
    <path d="M -47.89701 -0.12257 A 5 0.88875 180 0 0 -47.89976 -0.09305 A 5 0.88875 180 0 0 -46.46144 0.53071" />
    <path d="M -45.70713 -0.59952 L -37.51528 -2.03416" />
    <path d="M -31.85858 -2.0267 L -7.99601 2.27827" />
    <path d="M -7.12412 2.5165 A 4 0.711 180 0 0 -7.99601 2.27827" />
    <path d="M -46.04211 -0.17468 L -46.04211 -0.53298" />
    <path d="M -22.59887 12.67876 L -46.46144 8.37379 A 5 0.88875 360 0 1 -47.89976 7.75003 A 5 0.88875 360 0 1 -46.62568 7.15736 L -46.40897 7.11695 L -38.21712 5.68231 L -37.74305 5.60912 A 5 0.88875 360 0 1 -31.14625 5.69163" />
    <path d="M -22.59887 12.67876 L -22.59887 13.14128" />
    <path d="M -46.46144 8.83631 L -22.59887 13.14128" />
    <path d="M -46.46144 8.37379 L -46.46144 8.83631 A 5 0.88875 360 0 1 -47.89976 8.21255 L -47.89976 7.75003" />
    <path d="M -21.88654 12.55401 L -45.7491 8.24904 A 4 0.711 360 0 1 -46.89976 7.75003 A 4 0.711 360 0 1 -45.8805 7.2759 L -45.8805 7.73841 L -45.70713 7.70608 L -37.51528 6.27144 L -37.13603 6.21289 A 4 0.711 360 0 1 -31.85858 6.2789" />
    <path d="M -16.60909 12.62002 A 4 0.711 360 0 1 -21.88654 12.55401" />
    <path d="M -16.22984 12.56147 L -16.60909 12.62002" />
    <path d="M -8.03799 11.12683 L -16.22984 12.56147" />
    <path d="M -7.86462 11.0945 L -8.03799 11.12683" />
    <path d="M -7.99601 10.12136 A 4 0.711 360 0 1 -6.84535 10.62036 A 4 0.711 360 0 1 -7.86462 11.0945" />
    <path d="M -31.85858 5.81638 L -7.99601 10.12136 L -7.99601 10.58387 A 4 0.711 360 0 1 -7.06285 10.85162" />
    <path d="M -37.13603 5.75038 A 4 0.711 360 0 1 -31.85858 5.81638 L -31.85858 6.2789" />
    <path d="M -37.51528 5.80892 L -37.13603 5.75038 L -37.13603 6.21289" />
    <path d="M -45.70713 7.24357 L -37.51528 5.80892 L -37.51528 6.27144" />
    <path d="M -45.8805 7.2759 L -45.70713 7.24357 L -45.70713 7.70608" />
    <path d="M -7.28368 9.99661 L -31.14625 5.69163" />
    <path d="M -7.28368 9.99661 A 5 0.88875 360 0 1 -5.84535 10.62036 A 5 0.88875 360 0 1 -7.11944 11.21303 L -7.11944 11.67555 L -7.33615 11.71596 L -15.528 13.1506 L -16.00206 13.22379 A 5 0.88875 360 0 1 -22.59887 13.14128" />
    <path d="M -7.11944 11.21303 L -7.33615 11.25345 L -7.33615 11.71596" />
    <path d="M -15.528 12.68809 L -7.33615 11.25345" />
    <path d="M -15.528 12.68809 L -16.00206 12.76127 L -16.00206 13.22379" />
    <path d="M -16.00206 12.76127 A 5 0.88875 360 0 1 -22.59887 12.67876" />
    <path d="M -7.99601 10.58387 L -31.85858 6.2789" />
    <path d="M -46.68226 7.98129 A 4 0.711 360 0 1 -45.8805 7.73841" />
    <path d="M -5.84535 11.08288 A 5 0.88875 360 0 1 -7.11944 11.67555" />
    <path d="M -15.528 12.68809 L -15.528 13.1506" />
    <path d="M -15.75856 13.71008 L -15.75856 13.24757 L -15.528 13.20965 L -7.33615 11.77501 L -6.91743 11.69184 A 5 0.88875 180 0 0 -5.84535 11.14192 A 5 0.88875 180 0 0 -5.84811 11.1124" />
    <path d="M -22.59887 13.66284 A 5 0.88875 180 0 0 -15.75856 13.71008 L -15.528 13.67216 L -7.33615 12.23752 L -7.33615 11.77501" />
    <path d="M -22.59887 13.20032 A 5 0.88875 180 0 0 -15.75856 13.24757" />
    <path d="M -46.46144 9.35787 L -22.59887 13.66284 L -22.59887 13.20032 L -46.46144 8.89535" />
    <path d="M -15.528 13.67216 L -15.528 13.20965" />
    <path d="M -45.70713 8.22764 L -45.78336 8.24278" />
    <path d="M -37.51528 6.793 L -45.70713 8.22764 L -45.70713 7.76513 L -46.04211 7.83166 A 4 0.711 180 0 0 -46.62099 8.01081" />
    <path d="M -37.33083 6.76267 L -37.51528 6.793 L -37.51528 6.33048" />
    <path d="M -31.85858 6.80046 A 4 0.711 180 0 0 -37.33083 6.76267 L -37.33083 6.30015 L -37.51528 6.33048" />
    <path d="M -7.99601 11.10543 L -31.85858 6.80046 L -31.85858 6.33794 A 4 0.711 180 0 0 -37.33083 6.30015" />
    <path d="M -7.95927 11.11215 A 4 0.711 180 0 0 -7.99601 11.10543 L -7.99601 10.64292" />
    <path d="M -6.91743 12.15435 A 5 0.88875 180 0 0 -5.84535 11.60444" />
    <path d="M -47.89976 8.73411 A 5 0.88875 180 0 0 -46.46144 9.35787 L -46.46144 8.89535" />
    <path d="M -7.33615 12.23752 L -6.91743 12.15435 L -6.91743 11.69184" />
    <path d="M -45.70713 7.76513 L -37.51528 6.33048" />
    <path d="M -31.85858 6.33794 L -7.99601 10.64292" />
    <path d="M -7.12412 10.88114 A 4 0.711 180 0 0 -7.99601 10.64292" />
    <path d="M -47.89701 8.24207 A 5 0.88875 180 0 0 -47.89976 8.27159 A 5 0.88875 180 0 0 -46.46144 8.89535" />
    <path d="M -46.04211 8.18996 L -46.04211 7.83166" />
    <path d="M -22.59887 -4.05053 L -46.46144 -8.3555 A 5 0.88875 360 0 1 -47.89976 -8.97926 A 5 0.88875 360 0 1 -46.62568 -9.57193 L -46.40897 -9.61234 L -38.21712 -11.04698 L -37.74305 -11.12017 A 5 0.88875 360 0 1 -31.14625 -11.03766" />
    <path d="M -22.59887 -4.05053 L -22.59887 -3.58801" />
    <path d="M -46.46144 -7.89298 L -22.59887 -3.58801" />
    <path d="M -46.46144 -8.3555 L -46.46144 -7.89298 A 5 0.88875 360 0 1 -47.89976 -8.51674 L -47.89976 -8.97926" />
    <path d="M -21.88654 -4.17528 L -45.7491 -8.48025 A 4 0.711 360 0 1 -46.89976 -8.97926 A 4 0.711 360 0 1 -45.8805 -9.45339 L -45.8805 -8.99088 L -45.70713 -9.02321 L -37.51528 -10.45785 L -37.13603 -10.5164 A 4 0.711 360 0 1 -31.85858 -10.45039" />
    <path d="M -16.60909 -4.10927 A 4 0.711 360 0 1 -21.88654 -4.17528" />
    <path d="M -16.22984 -4.16782 L -16.60909 -4.10927" />
    <path d="M -8.03799 -5.60246 L -16.22984 -4.16782" />
    <path d="M -7.86462 -5.63479 L -8.03799 -5.60246" />
    <path d="M -7.99601 -6.60793 A 4 0.711 360 0 1 -6.84535 -6.10893 A 4 0.711 360 0 1 -7.86462 -5.63479" />
    <path d="M -31.85858 -10.9129 L -7.99601 -6.60793 L -7.99601 -6.14542 A 4 0.711 360 0 1 -7.06285 -5.87767" />
    <path d="M -37.13603 -10.97891 A 4 0.711 360 0 1 -31.85858 -10.9129 L -31.85858 -10.45039" />
    <path d="M -37.51528 -10.92037 L -37.13603 -10.97891 L -37.13603 -10.5164" />
    <path d="M -45.70713 -9.48572 L -37.51528 -10.92037 L -37.51528 -10.45785" />
    <path d="M -45.8805 -9.45339 L -45.70713 -9.48572 L -45.70713 -9.02321" />
    <path d="M -7.28368 -6.73268 L -31.14625 -11.03766" />
    <path d="M -7.28368 -6.73268 A 5 0.88875 360 0 1 -5.84535 -6.10893 A 5 0.88875 360 0 1 -7.11944 -5.51626 L -7.11944 -5.05374 L -7.33615 -5.01333 L -15.528 -3.57868 L -16.00206 -3.5055 A 5 0.88875 360 0 1 -22.59887 -3.58801" />
    <path d="M -7.11944 -5.51626 L -7.33615 -5.47584 L -7.33615 -5.01333" />
    <path d="M -15.528 -4.0412 L -7.33615 -5.47584" />
    <path d="M -15.528 -4.0412 L -16.00206 -3.96802 L -16.00206 -3.5055" />
    <path d="M -16.00206 -3.96802 A 5 0.88875 360 0 1 -22.59887 -4.05053" />
    <path d="M -7.99601 -6.14542 L -31.85858 -10.45039" />
    <path d="M -46.68226 -8.748 A 4 0.711 360 0 1 -45.8805 -8.99088" />
    <path d="M -5.84535 -5.64641 A 5 0.88875 360 0 1 -7.11944 -5.05374" />
    <path d="M -15.528 -4.0412 L -15.528 -3.57868" />
    <path d="M -46.46144 -7.37142 L -22.59887 -3.06645 A 5 0.88875 180 0 0 -15.75856 -3.01921 L -15.75856 -3.48172 L -15.528 -3.51964 L -7.33615 -4.95428 L -6.91743 -5.03745 A 5 0.88875 180 0 0 -5.84535 -5.58737 A 5 0.88875 180 0 0 -5.84811 -5.61689" />
    <path d="M -46.46144 -7.37142 L -46.46144 -7.83394" />
    <path d="M -22.59887 -3.52897 L -46.46144 -7.83394" />
    <path d="M -22.59887 -3.06645 L -22.59887 -3.52897 A 5 0.88875 180 0 0 -15.75856 -3.48172" />
    <path d="M -45.70713 -8.50165 L -45.78336 -8.48651" />
    <path d="M -37.51528 -9.93629 L -45.70713 -8.50165 L -45.70713 -8.96416 L -46.04211 -8.89763 A 4 0.711 180 0 0 -46.62099 -8.71848" />
    <path d="M -37.33083 -9.96662 L -37.51528 -9.93629 L -37.51528 -10.39881" />
    <path d="M -31.85858 -9.92883 A 4 0.711 180 0 0 -37.33083 -9.96662 L -37.33083 -10.42914 L -37.51528 -10.39881" />
    <path d="M -7.99601 -5.62386 L -31.85858 -9.92883 L -31.85858 -10.39134 A 4 0.711 180 0 0 -37.33083 -10.42914" />
    <path d="M -7.95927 -5.61714 A 4 0.711 180 0 0 -7.99601 -5.62386 L -7.99601 -6.08637" />
    <path d="M -47.89976 -7.99518 A 5 0.88875 180 0 0 -46.46144 -7.37142" />
    <path d="M -15.75856 -3.01921 L -15.528 -3.05712 L -15.528 -3.51964" />
    <path d="M -15.528 -3.05712 L -7.33615 -4.49177 L -7.33615 -4.95428" />
    <path d="M -7.33615 -4.49177 L -6.91743 -4.57494 L -6.91743 -5.03745" />
    <path d="M -6.91743 -4.57494 A 5 0.88875 180 0 0 -5.84535 -5.12485" />
    <path d="M -47.89701 -8.48722 A 5 0.88875 180 0 0 -47.89976 -8.4577 A 5 0.88875 180 0 0 -46.46144 -7.83394" />
    <path d="M -45.70713 -8.96416 L -37.51528 -10.39881" />
    <path d="M -31.85858 -10.39134 L -7.99601 -6.08637" />
    <path d="M -7.12412 -5.84815 A 4 0.711 180 0 0 -7.99601 -6.08637" />
    <path d="M -46.04211 -8.53932 L -46.04211 -8.89763" />
    <path d="M 28.08557 8.13016 L 28.7979 8.0054 L 28.7979 7.54289 L 28.08557 7.66764" />
    <path d="M 28.06668 8.12675 L 28.08557 8.13016 L 28.08557 7.66764" />
    <path d="M 7.03036 4.07174 L 7.03036 3.86913 L 28.08557 7.66764" />
    <path d="M 7.03036 3.86913 L 7.7427 3.74438 L 28.7979 7.54289" />
    <path d="M -15.62187 8.29875 L 5.43333 12.09725 L 5.9948 11.99892" />
    <path d="M 5.43333 12.09725 L 5.43333 11.63474" />
    <path d="M -15.62187 7.83623 L 5.43333 11.63474" />
    <path d="M -15.62187 7.83623 L -15.62187 8.29875" />
    <path d="M 6.14567 11.70961 L 6.14567 11.50998 L 5.43333 11.63474" />
    <path d="M -15.62187 7.83623 L -14.90954 7.71148 L 6.14567 11.50998" />
    <path d="M 22.17777 8.9019 L 22.17777 8.53888" />
    <path d="M 19.32844 9.03788 L 22.17777 8.53888" />
    <path d="M 14.83324 9.73861 A 5 0.88875 180 0 0 17.65483 9.694" />
    <path d="M 21.47593 8.41226 L 22.17777 8.53888" />
    <path d="M 12.72547 9.10299 A 5 0.88875 180 0 0 19.32844 9.03788" />
    <path d="M 12.25756 9.02856 L 12.72547 9.10299" />
    <path d="M 10.3275 8.68036 L 12.25756 9.02856" />
    <path d="M 10.3275 8.68036 L 11.03984 8.55561 L 12.9699 8.90381 L 13.34422 8.96335 A 4 0.711 180 0 0 18.6266 8.91127 L 21.47593 8.41226" />
    <path d="M 12.72547 9.30711 L 12.72547 9.10299" />
    <path d="M 12.25756 9.23719 L 12.25756 9.02856" />
    <path d="M 10.3275 8.68036 L 10.3275 9.08785" />
    <path d="M 3.26655 9.07243 L 9.49947 7.98085 L 9.49947 7.51834" />
    <path d="M 3.03598 9.11035 L 3.26655 9.07243 L 3.26655 8.60991 L 9.49947 7.51834" />
    <path d="M 2.35127 9.19914 A 5 0.88875 180 0 0 3.03598 9.11035 L 3.03598 8.64783 L 3.26655 8.60991" />
    <path d="M -3.80432 8.60059 A 5 0.88875 180 0 0 3.03598 8.64783" />
    <path d="M -6.61169 8.09412 L -3.80432 8.60059" />
    <path d="M -6.61169 8.09412 L -6.61169 8.29673" />
    <path d="M -6.61169 8.09412 L -5.89935 7.96937 L -3.09199 8.47584 A 4 0.711 180 0 0 2.38026 8.51363 L 2.56471 8.4833 L 8.79763 7.39172 L 9.49947 7.51834" />
    <path d="M 11.45564 5.59935 L 11.45564 5.33931 L 10.74331 5.46406 A 4 0.711 180 0 0 5.27106 5.42626 L 5.08661 5.4566 L -3.10523 6.89124 L -3.44021 6.95777 A 4 0.711 180 0 0 -4.29787 7.39771 A 4 0.711 180 0 0 -3.14721 7.89671 L -3.85955 8.02146" />
    <path d="M 11.45564 5.33931 A 5 0.88875 180 0 0 4.61533 5.29206 L 4.38477 5.32998 L -3.80708 6.76462 L -4.2258 6.84779 A 5 0.88875 180 0 0 -5.29787 7.39771 L -5.29787 7.86022 A 5 0.88875 180 0 0 -5.08623 8.11606" />
    <path d="M 10.74331 5.58807 L 10.74331 5.46406" />
    <path d="M 8.07763 5.71533 A 4 0.711 180 0 0 5.27106 5.88878 L 5.27106 5.42626" />
    <path d="M 5.27106 5.88878 L 5.08661 5.91911 L 5.08661 5.4566" />
    <path d="M 5.08661 5.91911 L -3.10523 7.35375 L -3.10523 6.89124" />
    <path d="M -3.10523 7.35375 L -3.44021 7.42029 L -3.44021 6.95777" />
    <path d="M -3.44021 7.42029 A 4 0.711 180 0 0 -4.08037 7.62896" />
    <path d="M -3.44717 8.41176 L -3.14721 8.35923 L -3.14721 7.89671" />
    <path d="M -5.29787 7.39771 A 5 0.88875 180 0 0 -3.85955 8.02146" />
    <path d="M -3.85955 8.33736 L -3.85955 8.02146" />
    <path d="M -14.33967 7.81429 L -14.33967 7.61168 L 6.71553 11.41018" />
    <path d="M -14.33967 7.61168 L -13.62734 7.48693 L 7.42787 11.28543 L 6.71553 11.41018" />
    <path d="M 7.42787 11.48506 L 7.42787 11.28543" />
    <path d="M 6.71553 11.60981 L 6.71553 11.41018" />
    <path d="M 5.9948 12.19855 L 5.9948 11.73603" />
    <path d="M 27.36484 7.99349 L 5.9948 11.73603" />
    <path d="M 7.25812 12.22683 L 6.69664 12.32516 L 6.69664 11.86265 L 5.9948 11.73603" />
    <path d="M 5.9948 12.19855 L 6.69664 12.32516" />
    <path d="M 27.36484 7.99349 L 28.06668 8.1201 L 28.06668 8.31973" />
    <path d="M 28.06668 8.1201 L 6.69664 11.86265" />
    <path d="M 15.56998 13.56591 L 18.37734 14.07238 L 19.08968 13.94763 L 19.08968 13.48511 L 18.37734 13.60986" />
    <path d="M 18.37734 14.07238 L 18.37734 13.60986" />
    <path d="M 15.56998 13.1034 L 18.37734 13.60986" />
    <path d="M 14.13165 12.94215 A 5 0.88875 180 0 0 15.56998 13.56591 L 15.56998 13.1034" />
    <path d="M 18.13458 12.11865 L 16.32429 12.43569 L 16.32429 11.97317 L 15.98931 12.03971 A 4 0.711 180 0 0 15.13165 12.47964 A 4 0.711 180 0 0 16.28232 12.97864 L 19.08968 13.48511" />
    <path d="M 16.32429 12.43569 L 15.98931 12.50222 L 15.98931 12.03971" />
    <path d="M 15.98931 12.50222 A 4 0.711 180 0 0 15.34915 12.7109" />
    <path d="M 15.20373 11.92972 A 5 0.88875 180 0 0 14.13165 12.47964 L 14.13165 12.94215" />
    <path d="M 14.13165 12.47964 A 5 0.88875 180 0 0 15.56998 13.1034" />
    <path d="M 15.62245 11.84655 L 15.20373 11.92972" />
    <path d="M 17.58137 11.50349 L 15.62245 11.84655" />
    <path d="M 17.58137 11.50349 L 18.28321 11.6301 L 18.28321 11.82973" />
    <path d="M 18.28321 11.6301 L 16.32429 11.97317" />
    <path d="M 21.98603 8.50429 A 5 0.88875 180 0 0 22.43974 8.13436" />
    <path d="M 21.22224 7.9031 A 4 0.711 180 0 0 20.45973 7.66814 L 20.45973 7.20563 L 20.28908 7.17284 L 14.14798 6.06494 L 14.86031 5.94019" />
    <path d="M 20.45973 7.66814 L 20.28908 7.63536 L 20.28908 7.17284" />
    <path d="M 20.28908 7.63536 L 15.52934 6.77667" />
    <path d="M 21.00141 7.04809 L 14.86031 5.94019" />
    <path d="M 21.21473 7.08907 L 21.00141 7.04809" />
    <path d="M 20.94894 8.30493 A 5 0.88875 180 0 0 22.43974 7.67185 L 22.43974 8.13436" />
    <path d="M 22.43974 7.67185 A 5 0.88875 180 0 0 21.21473 7.08907" />
    <path d="M 18.0996 8.80394 L 20.94894 8.30493" />
    <path d="M 18.0996 8.80394 L 18.0996 8.98894" />
    <path d="M 18.0996 8.80394 L 17.39776 8.67732 L 20.2471 8.17831 A 4 0.711 180 0 0 21.43974 7.67185 A 4 0.711 180 0 0 20.45973 7.20563" />
    <path d="M 17.39776 8.67732 L 17.39776 9.05809" />
    <path d="M 14.14798 6.46499 L 14.14798 6.06494" />
    <path d="M 14.16788 3.99179 L 14.16788 3.78668 L 14.38119 3.82766 L 22.45236 5.28376 L 22.92026 5.35819 A 5 0.88875 180 0 0 29.52323 5.29308" />
    <path d="M 12.94287 3.66642 A 5 0.88875 180 0 0 12.98237 3.77792" />
    <path d="M 14.43367 2.57082 A 5 0.88875 180 0 0 12.94287 3.20391 L 12.94287 3.66642" />
    <path d="M 12.94287 3.20391 A 5 0.88875 180 0 0 14.16788 3.78668" />
    <path d="M 14.43367 2.57082 L 15.13551 2.69744 A 4 0.711 180 0 0 13.94287 3.20391 A 4 0.711 180 0 0 14.92288 3.67013 L 15.09353 3.70291 L 23.16469 5.15901 L 23.53901 5.21855 A 4 0.711 180 0 0 28.82139 5.16647 L 29.52323 5.29308" />
    <path d="M 15.13551 3.15996 L 15.13551 2.69744" />
    <path d="M 14.38119 4.03027 L 14.38119 3.82766" />
    <path d="M 15.13551 3.15996 A 4 0.711 180 0 0 14.16037 3.43516" />
    <path d="M 25.31323 6.00249 A 5 0.88875 180 0 0 25.60295 6.00825" />
    <path d="M 22.45236 5.48637 L 22.45236 5.28376" />
    <path d="M 29.52323 5.59949 L 29.52323 5.29308" />
    <path d="M 22.92026 5.57078 L 22.92026 5.35819" />
    <path d="M -13.05747 7.58974 L -13.05747 7.38713 L 7.99774 11.18563" />
    <path d="M -13.05747 7.38713 L -12.34514 7.26238 L 8.71007 11.06088 L 7.99774 11.18563" />
    <path d="M 8.71007 11.2605 L 8.71007 11.06088" />
    <path d="M 7.99774 11.38526 L 7.99774 11.18563" />
    <path d="M 7.95996 12.55307 L 8.52143 12.45474" />
    <path d="M 29.32999 8.54764 L 29.32999 8.34801" />
    <path d="M 7.95996 12.09056 L 29.32999 8.34801" />
    <path d="M 7.95996 12.09056 L 7.95996 12.55307" />
    <path d="M 7.25812 12.42646 L 7.95996 12.55307" />
    <path d="M 28.62815 8.2214 L 29.32999 8.34801" />
    <path d="M 7.95996 12.09056 L 7.25812 11.96394 L 7.25812 12.42646" />
    <path d="M 7.25812 11.96394 L 28.62815 8.2214" />
    <path d="M 31.72108 6.42674 L 28.91372 5.92028" />
    <path d="M 32.08734 8.06293 A 5 0.88875 180 0 0 33.15941 7.51302" />
    <path d="M 31.66861 8.1461 L 32.08734 8.06293 L 32.08734 7.60042 A 5 0.88875 180 0 0 33.15941 7.0505 L 33.15941 7.51302" />
    <path d="M 29.91404 8.45338 L 31.66861 8.1461 L 31.66861 7.68359 L 32.08734 7.60042" />
    <path d="M 29.32999 8.42067 L 29.68711 8.48509" />
    <path d="M 31.94191 7.28176 A 4 0.711 180 0 0 31.00875 7.01401 L 31.00875 6.5515 L 28.20139 6.04503 L 28.91372 5.92028" />
    <path d="M 31.00875 7.01401 L 28.20139 6.50754 L 28.20139 6.04503" />
    <path d="M 33.15941 7.0505 A 5 0.88875 180 0 0 31.72108 6.42674" />
    <path d="M 29.70969 8.02665 L 31.66861 7.68359" />
    <path d="M 29.70969 8.02665 L 29.00785 7.90004 L 29.00785 8.2899" />
    <path d="M 29.00785 7.90004 L 30.96677 7.55697 L 31.30175 7.49043 A 4 0.711 180 0 0 32.15941 7.0505 A 4 0.711 180 0 0 31.00875 6.5515" />
    <path d="M 29.70969 8.02665 L 29.70969 8.48114" />
    <path d="M 42.65106 9.82131 L 42.85779 9.78511" />
    <path d="M 42.65106 9.82131 L 39.8437 9.31484 L 39.8437 8.85233 A 4 0.711 180 0 0 34.37146 8.81453 L 34.187 8.84486 L 27.95408 9.93644 L 27.25224 9.80982" />
    <path d="M 39.8437 9.31484 A 4 0.711 180 0 0 35.79083 9.1358" />
    <path d="M 34.03167 9.33458 L 29.60368 10.11006" />
    <path d="M 27.25224 10.06379 L 27.25224 9.80982" />
    <path d="M 33.48516 8.71825 L 27.25224 9.80982" />
    <path d="M 33.71573 8.68033 L 33.48516 8.71825" />
    <path d="M 40.55604 8.72757 A 5 0.88875 180 0 0 33.71573 8.68033" />
    <path d="M 43.3634 9.23404 L 40.55604 8.72757" />
    <path d="M 43.3634 9.23404 L 43.3634 9.43367" />
    <path d="M 43.3634 9.23404 L 42.65106 9.35879 L 39.8437 8.85233" />
    <path d="M 42.65106 9.35879 L 42.65106 9.82131" />
    <path d="M 34.37146 9.01219 L 34.37146 8.81453" />
    <path d="M 34.187 9.04449 L 34.187 8.84486" />
    <path d="M 27.95408 10.05651 L 27.95408 9.93644" />
    <path d="M 8.69254 5.08573 L 8.69254 4.82569 L 7.98021 4.95044 A 4 0.711 180 0 0 2.50796 4.91265 L 2.32351 4.94298 L -5.86834 6.37762 L -6.20332 6.44416 A 4 0.711 180 0 0 -7.06098 6.88409 A 4 0.711 180 0 0 -5.91031 7.38309 L -6.62265 7.50785" />
    <path d="M 8.69254 4.82569 A 5 0.88875 180 0 0 1.85223 4.77845 L 1.62167 4.81636 L -6.57018 6.251 L -6.9889 6.33417 A 5 0.88875 180 0 0 -8.06098 6.88409 L -8.06098 7.3466 A 5 0.88875 180 0 0 -6.62265 7.97036 L -6.62265 7.50785" />
    <path d="M 7.98021 5.07445 L 7.98021 4.95044" />
    <path d="M 5.31453 5.20172 A 4 0.711 180 0 0 2.50796 5.37516 L 2.50796 4.91265" />
    <path d="M 2.50796 5.37516 L 2.32351 5.40549 L 2.32351 4.94298" />
    <path d="M 2.32351 5.40549 L -5.86834 6.84014 L -5.86834 6.37762" />
    <path d="M -5.86834 6.84014 L -6.20332 6.90667 L -6.20332 6.44416" />
    <path d="M -6.20332 6.90667 A 4 0.711 180 0 0 -6.84348 7.11535" />
    <path d="M -6.62265 7.97036 L -5.91031 7.84561 L -5.91031 7.38309" />
    <path d="M -8.06098 6.88409 A 5 0.88875 180 0 0 -6.62265 7.50785" />
    <path d="M 8.52143 12.65437 L 9.22327 12.78098 L 9.22327 12.31847 L 30.5933 8.57592" />
    <path d="M 9.22327 12.78098 L 9.78474 12.68265" />
    <path d="M 9.22327 12.31847 L 8.52143 12.19185 L 29.89146 8.44931 L 30.5933 8.57592" />
    <path d="M 8.52143 12.65437 L 8.52143 12.19185" />
    <path d="M 30.5933 8.77555 L 30.5933 8.57592" />
    <path d="M 30.0801 7.31834 L 9.0249 3.51983" />
    <path d="M 30.0801 7.31834 L 30.0801 7.71225" />
    <path d="M 29.17482 7.87079 L 28.7979 7.80279" />
    <path d="M 8.31256 3.84719 L 8.31256 3.64458 L 9.0249 3.51983" />
    <path d="M 30.0801 7.31834 L 29.36777 7.44309 L 29.36777 7.837" />
    <path d="M 29.36777 7.44309 L 8.31256 3.64458" />
    <path d="M 2.11276 7.63707 L 2.11276 7.17456" />
    <path d="M 4.96209 6.67555 L 2.11276 7.17456" />
    <path d="M 13.25044 7.62029 L 11.32063 7.27214 L 11.32063 6.80963 L 10.94631 6.75009 A 4 0.711 180 0 0 5.66393 6.80217 L 2.8146 7.30117 L 2.11276 7.17456" />
    <path d="M 11.32063 7.27214 L 10.94631 7.2126 L 10.94631 6.75009" />
    <path d="M 10.94631 7.2126 A 4 0.711 180 0 0 5.66393 7.26468 L 5.66393 6.80217" />
    <path d="M 5.66393 7.26468 L 2.8146 7.76369 L 2.8146 7.30117" />
    <path d="M 2.11276 7.63707 L 2.8146 7.76369" />
    <path d="M 11.56506 6.61045 A 5 0.88875 180 0 0 4.96209 6.67555" />
    <path d="M 12.03297 6.68488 L 11.56506 6.61045" />
    <path d="M 13.96303 7.03307 L 12.03297 6.68488" />
    <path d="M 13.96303 7.03307 L 13.25069 7.15782 L 13.25069 7.62025" />
    <path d="M 13.25069 7.15782 L 11.32063 6.80963" />
    <path d="M 13.96303 7.03307 L 13.96303 7.48544" />
    <path d="M 34.24574 11.29334 L 34.2624 11.29042" />
    <path d="M 18.15124 11.6063 L 18.15124 11.40369" />
    <path d="M 24.38417 10.31211 L 18.15124 11.40369" />
    <path d="M 24.61473 10.27419 L 24.38417 10.31211" />
    <path d="M 31.45504 10.32144 A 5 0.88875 180 0 0 24.61473 10.27419" />
    <path d="M 34.2624 10.8279 L 31.45504 10.32144" />
    <path d="M 34.2624 10.8279 L 34.2624 11.29042" />
    <path d="M 34.2624 10.8279 L 33.55007 10.95266 L 30.7427 10.44619 A 4 0.711 180 0 0 25.27046 10.40839 L 25.08601 10.43873 L 18.85308 11.5303 L 18.15124 11.40369" />
    <path d="M 33.55007 10.95266 L 33.55007 11.15447" />
    <path d="M 25.27046 10.63881 L 25.27046 10.40839" />
    <path d="M 25.08601 10.65983 L 25.08601 10.43873" />
    <path d="M 18.85308 11.72993 L 18.85308 11.5303" />
    <path d="M 40.69252 8.7522 L 40.69252 8.57441 L 39.99068 8.44779 A 4 0.711 180 0 0 41.18332 7.94132 A 4 0.711 180 0 0 40.20331 7.4751 L 40.03265 7.44232 L 31.96149 5.98623 L 31.58717 5.92668 A 4 0.711 180 0 0 26.30479 5.97876 L 25.60295 5.85215" />
    <path d="M 41.4035 8.88046 A 5 0.88875 180 0 0 42.18332 8.40384" />
    <path d="M 40.69252 8.57441 A 5 0.88875 180 0 0 42.18332 7.94132 L 42.18332 8.40384" />
    <path d="M 42.18332 7.94132 A 5 0.88875 180 0 0 40.9583 7.35855 L 40.74499 7.31757 L 32.67383 5.86147 L 32.20592 5.78705 A 5 0.88875 180 0 0 25.60295 5.85215" />
    <path d="M 39.99068 8.63984 L 39.99068 8.44779" />
    <path d="M 40.96582 8.17258 A 4 0.711 180 0 0 40.20331 7.93762 L 40.20331 7.4751" />
    <path d="M 40.20331 7.93762 L 40.03265 7.90483 L 40.03265 7.44232" />
    <path d="M 40.03265 7.90483 L 31.96149 6.44874 L 31.96149 5.98623" />
    <path d="M 31.96149 6.44874 L 31.58717 6.3892 L 31.58717 5.92668" />
    <path d="M 31.58717 6.3892 A 4 0.711 180 0 0 31.32773 6.35578" />
    <path d="M 28.20139 6.25543 A 4 0.711 180 0 0 27.12978 6.33021" />
    <path d="M 26.30479 6.18137 L 26.30479 5.97876" />
    <path d="M 25.60295 6.05476 L 25.60295 5.85215" />
    <path d="M 5.74816 4.5562 L 5.82012 4.56919" />
    <path d="M 11.45564 5.58587 L 11.54547 5.60208" />
    <path d="M 22.40024 7.56035 L 26.06395 8.22131" />
    <path d="M 5.74816 4.5562 L 5.74816 4.09369 L 26.80337 7.89219" />
    <path d="M 5.74816 4.09369 L 6.4605 3.96894 L 27.5157 7.76744 L 26.80337 7.89219" />
    <path d="M 27.5157 8.0207 L 27.5157 7.76744" />
    <path d="M 26.80337 8.09182 L 26.80337 7.89219" />
    <path d="M 9.78474 12.88228 L 9.78474 12.41976" />
    <path d="M 31.15477 8.67722 L 9.78474 12.41976" />
    <path d="M 14.17494 12.36295 L 10.48658 13.00889 L 10.48658 12.54638 L 9.78474 12.41976" />
    <path d="M 9.78474 12.88228 L 10.48658 13.00889" />
    <path d="M 31.15477 8.67722 L 31.85661 8.80383 L 31.85661 9.00346" />
    <path d="M 31.85661 8.80383 L 10.48658 12.54638" />
    <path d="M 37.55136 9.45341 L 34.744 8.94694" />
    <path d="M 37.91762 11.0896 A 5 0.88875 180 0 0 38.98969 10.53968" />
    <path d="M 37.49889 11.17277 L 37.91762 11.0896 L 37.91762 10.62708 A 5 0.88875 180 0 0 38.98969 10.07717 L 38.98969 10.53968" />
    <path d="M 35.53997 11.51583 L 37.49889 11.17277 L 37.49889 10.71025 L 37.91762 10.62708" />
    <path d="M 34.83813 11.38922 L 35.53997 11.51583" />
    <path d="M 37.77219 10.30842 A 4 0.711 180 0 0 36.83903 10.04068 L 36.83903 9.57816 L 34.03167 9.07169 L 34.744 8.94694" />
    <path d="M 36.83903 10.04068 L 34.03167 9.53421 L 34.03167 9.07169" />
    <path d="M 38.98969 10.07717 A 5 0.88875 180 0 0 37.55136 9.45341" />
    <path d="M 35.53997 11.05332 L 37.49889 10.71025" />
    <path d="M 35.53997 11.05332 L 34.83813 10.9267 L 34.83813 11.38922" />
    <path d="M 34.83813 10.9267 L 36.79705 10.58363 L 37.13203 10.5171 A 4 0.711 180 0 0 37.98969 10.07717 A 4 0.711 180 0 0 36.83903 9.57816" />
    <path d="M 35.53997 11.05332 L 35.53997 11.51583" />
    <path d="M 33.5334 11.86724 L 34.24574 11.74249" />
    <path d="M 33.5334 11.86724 L 30.72604 11.36078 L 30.72604 10.89826 A 4 0.711 180 0 0 25.2538 10.86047 L 25.06935 10.8908 L 18.83642 11.98237 L 18.13458 11.85576" />
    <path d="M 30.72604 11.36078 A 4 0.711 180 0 0 25.2538 11.32298 L 25.2538 10.86047" />
    <path d="M 25.2538 11.32298 L 25.06935 11.35332 L 25.06935 10.8908" />
    <path d="M 25.06935 11.35332 L 18.83642 12.44489 L 18.83642 11.98237" />
    <path d="M 18.13458 12.31827 L 18.83642 12.44489" />
    <path d="M 18.13458 12.31827 L 18.13458 11.85576" />
    <path d="M 24.36751 10.76418 L 18.13458 11.85576" />
    <path d="M 24.59807 10.72627 L 24.36751 10.76418" />
    <path d="M 31.43838 10.77351 A 5 0.88875 180 0 0 24.59807 10.72627" />
    <path d="M 34.24574 11.27998 L 31.43838 10.77351" />
    <path d="M 34.24574 11.27998 L 34.24574 11.74249" />
    <path d="M 34.24574 11.27998 L 33.5334 11.40473 L 30.72604 10.89826" />
    <path d="M 33.5334 11.40473 L 33.5334 11.86724" />
    <path d="M 14.21875 6.05255 L 14.21875 5.85292 L 13.50641 5.97768 A 4 0.711 180 0 0 8.03417 5.93988 L 7.84971 5.97021 L -0.34213 7.40486 L -0.67711 7.47139 A 4 0.711 180 0 0 -1.53477 7.91132 A 4 0.711 180 0 0 -0.38411 8.41033 L -1.09644 8.53508" />
    <path d="M 14.21875 5.85292 A 5 0.88875 180 0 0 7.37844 5.80568 L 7.14787 5.8436 L -1.04397 7.27824 L -1.4627 7.36141 A 5 0.88875 180 0 0 -2.53477 7.91132 L -2.53477 8.37384 A 5 0.88875 180 0 0 -2.40504 8.57498" />
    <path d="M 13.50641 6.44019 L 14.14798 6.32783" />
    <path d="M 13.50641 6.44019 L 13.50641 5.97768" />
    <path d="M 13.50641 6.44019 A 4 0.711 180 0 0 8.03417 6.4024 L 8.03417 5.93988" />
    <path d="M 8.03417 6.4024 L 7.89133 6.42589" />
    <path d="M 2.11276 7.43745 L -0.34213 7.86737 L -0.34213 7.40486" />
    <path d="M -0.34213 7.86737 L -0.67711 7.93391 L -0.67711 7.47139" />
    <path d="M -0.67711 7.93391 A 4 0.711 180 0 0 -1.31727 8.14258" />
    <path d="M -2.53477 7.91132 A 5 0.88875 180 0 0 -1.09644 8.53508" />
    <path d="M 7.84971 6.42678 L 7.84971 5.97021" />
    <path d="M -0.38411 8.68738 L -0.38411 8.41033" />
    <path d="M -1.09644 8.67144 L -1.09644 8.53508" />
    <path d="M 29.81295 5.60526 L 29.52323 5.55299" />
    <path d="M 27.9964 5.27754 L 15.13551 2.95735" />
    <path d="M 36.77605 6.60154 L 36.77605 6.14567 L 15.72084 2.34717" />
    <path d="M 36.77605 6.14567 L 36.06371 6.27042 L 15.00851 2.47192 L 15.72084 2.34717" />
    <path d="M 36.06371 6.47303 L 36.06371 6.27042" />
    <path d="M 15.00851 2.67453 L 15.00851 2.47192" />
    <path d="M 30.0801 7.57824 L 30.45702 7.64624" />
    <path d="M 30.64997 7.61245 L 30.64997 7.21853" />
    <path d="M 9.59476 3.42003 L 30.64997 7.21853" />
    <path d="M 9.59476 3.42003 L 9.59476 3.62264" />
    <path d="M 31.3623 7.47641 L 31.3623 7.09378 L 30.64997 7.21853" />
    <path d="M 9.59476 3.42003 L 10.3071 3.29528 L 31.3623 7.09378" />
    <path d="M 2.98297 10.02767 L 2.98297 9.82506" />
    <path d="M 5.83231 9.32606 L 2.98297 9.82506" />
    <path d="M 14.12091 10.27085 L 14.83324 10.14609" />
    <path d="M 14.12091 10.27085 L 12.19085 9.92265 L 12.19085 9.46013 L 11.81652 9.40059 A 4 0.711 180 0 0 6.53415 9.45267 L 3.68481 9.95168 L 2.98297 9.82506" />
    <path d="M 12.19085 9.92265 L 11.81652 9.86311 L 11.81652 9.40059" />
    <path d="M 11.81652 9.86311 A 4 0.711 180 0 0 6.53415 9.91519 L 6.53415 9.45267" />
    <path d="M 6.53415 9.91519 L 4.41583 10.28617" />
    <path d="M 3.68481 10.15429 L 3.68481 9.95168" />
    <path d="M 12.43528 9.26095 A 5 0.88875 180 0 0 5.83231 9.32606" />
    <path d="M 12.90318 9.33538 L 12.43528 9.26095" />
    <path d="M 14.83324 9.68358 L 12.90318 9.33538" />
    <path d="M 14.83324 9.68358 L 14.12091 9.80833 L 14.12091 10.27085" />
    <path d="M 14.12091 9.80833 L 12.19085 9.46013" />
    <path d="M 14.83324 9.68358 L 14.83324 10.14609" />
    <path d="M 46.40897 9.61234 A 5 0.88875 180 0 0 47.89976 8.97926" />
    <path d="M 43.55963 10.11135 L 46.40897 9.61234 L 46.40897 9.14982 A 5 0.88875 180 0 0 47.89976 8.51674 L 47.89976 8.97926" />
    <path d="M 42.85779 9.98473 L 43.55963 10.11135" />
    <path d="M 46.68226 8.748 A 4 0.711 180 0 0 45.91976 8.51304 L 45.91976 8.05052 L 45.7491 8.01773 L 39.608 6.90984 L 40.32034 6.78509" />
    <path d="M 45.91976 8.51304 L 45.7491 8.48025 L 45.7491 8.01773" />
    <path d="M 45.7491 8.48025 L 42.14382 7.82983" />
    <path d="M 46.46144 7.89298 L 40.32034 6.78509" />
    <path d="M 46.67475 7.93397 L 46.46144 7.89298" />
    <path d="M 47.89976 8.51674 A 5 0.88875 180 0 0 46.67475 7.93397" />
    <path d="M 43.55963 9.64883 L 46.40897 9.14982" />
    <path d="M 43.55963 9.64883 L 43.55963 10.11135" />
    <path d="M 43.55963 9.64883 L 42.85779 9.52221 L 45.70713 9.02321 A 4 0.711 180 0 0 46.89976 8.51674 A 4 0.711 180 0 0 45.91976 8.05052" />
    <path d="M 42.85779 9.52221 L 42.85779 9.98473" />
    <path d="M 39.608 7.11245 L 39.608 6.90984" />
    <path d="M -0.97311 9.31397 L -0.97311 9.11315 L -0.26078 8.9884 A 4 0.711 180 0 0 5.21147 9.0262 L 5.39592 8.99586 L 13.58777 7.56122 L 13.92274 7.49468 A 4 0.711 180 0 0 14.7804 7.05475 A 4 0.711 180 0 0 13.62974 6.55575 L 14.34208 6.43099" />
    <path d="M 5.8672 9.32001 L 5.8672 9.1604 L 6.09776 9.12248 L 14.28961 7.68784 L 14.70833 7.60467 A 5 0.88875 180 0 0 15.7804 7.05475 L 15.7804 7.51727" />
    <path d="M 1.89931 9.83217 A 5 0.88875 180 0 0 2.98297 9.83789" />
    <path d="M -0.97311 9.11315 A 5 0.88875 180 0 0 5.8672 9.1604" />
    <path d="M 6.09776 9.2828 L 6.09776 9.12248" />
    <path d="M 14.5629 7.28601 A 4 0.711 180 0 0 13.96303 7.08658" />
    <path d="M 14.70833 8.06718 A 5 0.88875 180 0 0 15.7804 7.51727" />
    <path d="M 14.28961 8.15035 L 14.70833 8.06718 L 14.70833 7.60467" />
    <path d="M 9.02602 9.07217 L 10.3275 8.84424" />
    <path d="M 11.50076 8.63876 L 14.28961 8.15035 L 14.28961 7.68784" />
    <path d="M 15.7804 7.05475 A 5 0.88875 180 0 0 14.34208 6.43099" />
    <path d="M 13.62974 6.97295 L 13.62974 6.55575" />
    <path d="M 19.32844 9.4009 L 19.32844 9.03788" />
    <path d="M -3.80432 8.8032 L -3.80432 8.60059" />
    <path d="M 20.94894 8.50455 L 20.94894 8.30493" />
    <path d="M 30.7427 10.66901 L 30.7427 10.44619" />
    <path d="M -5.84535 2.71823 L -5.84535 2.25572" />
    <path d="M -47.89976 -0.09305 L -47.89976 0.36946" />
    <path d="M -5.84535 2.77728 L -5.84535 3.23979" />
    <path d="M -5.84535 11.08288 L -5.84535 10.62036" />
    <path d="M -47.89976 8.27159 L -47.89976 8.73411" />
    <path d="M -5.84535 11.14192 L -5.84535 11.60444" />
    <path d="M -5.84535 -5.64641 L -5.84535 -6.10893" />
    <path d="M -47.89976 -8.4577 L -47.89976 -7.99518" />
    <path d="M -5.84535 -5.58737 L -5.84535 -5.12485" />
</svg>