<svg version="1.1" xmlns="http://www.w3.org/2000/svg" viewBox="-18.638328128630206 -16.899520726345955 37.27665625726041 33.79904145269191" fill="none" stroke="black" stroke-width="0.6%" vector-effect="non-scaling-stroke">
    <path d="M -17.12921 -3.32788 L -2.18158 6.95243 A 5 1.6832 180 0 0 4.22116 7.76773 L 4.50748 7.72425 L 14.83651 6.02225 L 15.38203 5.91759 A 5 1.6832 180 0 0 17.63833 4.51044" />
    <path d="M -17.12921 -3.77045 L -2.18158 6.50986 A 5 1.6832 180 0 0 4.22116 7.32516 L 4.50748 7.28168 L 14.83651 5.57969 L 15.38203 5.47502 A 5 1.6832 180 0 0 17.63833 4.06788 A 5 1.6832 180 0 0 17.12921 3.32788 L 10.45815 -1.26017" />
    <path d="M 4.22116 7.76773 L 4.22116 7.32516" />
    <path d="M 4.50748 7.72425 L 4.50748 7.28168" />
    <path d="M 14.83651 6.02225 L 14.83651 5.57969" />
    <path d="M 15.38203 5.91759 L 15.38203 5.47502" />
    <path d="M 9.49939 -1.91956 L 2.18158 -6.95243 A 5 1.6832 180 0 0 -4.22116 -7.76773 L -4.50748 -7.72425 L -9.04085 -6.97725" />
    <path d="M -10.45815 -6.74371 L -14.83651 -6.02225 L -15.38203 -5.91759 A 5 1.6832 180 0 0 -17.63833 -4.51044 A 5 1.6832 180 0 0 -17.12921 -3.77045" />
    <path d="M -17.63833 -4.06788 A 5 1.6832 180 0 0 -17.12921 -3.32788 L -17.12921 -3.77045" />
    <path d="M -14.83329 -5.19359 L -14.83329 -5.63616 A 4 1.34656 180 0 0 -16.63833 -4.51044 A 4 1.34656 180 0 0 -16.23103 -3.91845 L -1.2834 6.36186 A 4 1.34656 180 0 0 3.83879 7.0141 L 4.06785 6.97932 L 14.39687 5.27733 L 14.83329 5.19359 A 4 1.34656 180 0 0 16.63833 4.06788 A 4 1.34656 180 0 0 16.23103 3.47588 L 9.55997 -1.11217" />
    <path d="M -14.83329 -5.19359 A 4 1.34656 180 0 0 -16.58395 -4.28916" />
    <path d="M -14.39687 -5.27733 L -14.39687 -5.71989 L -14.83329 -5.63616" />
    <path d="M -14.39687 -5.27733 L -14.83329 -5.19359" />
    <path d="M -4.06785 -6.97932 L -4.06785 -7.42188 L -8.60122 -6.67489" />
    <path d="M -4.06785 -6.97932 L -8.0821 -6.31786" />
    <path d="M -9.49939 -6.08432 L -14.39687 -5.27733" />
    <path d="M -10.01851 -6.44135 L -14.39687 -5.71989" />
    <path d="M -3.83879 -7.0141 L -3.83879 -7.45667 L -4.06785 -7.42188" />
    <path d="M -3.83879 -7.0141 L -4.06785 -6.97932" />
    <path d="M 1.2834 -6.36186 A 4 1.34656 180 0 0 -3.83879 -7.0141" />
    <path d="M 1.2834 -6.80443 A 4 1.34656 180 0 0 -3.83879 -7.45667" />
    <path d="M 16.23103 3.91845 L 9.04085 -1.02664" />
    <path d="M 8.0821 -1.68603 L 1.2834 -6.36186 L 1.2834 -6.80443" />
    <path d="M 8.60122 -1.77156 L 1.2834 -6.80443" />
    <path d="M 16.58395 4.28916 A 4 1.34656 180 0 0 16.23103 3.91845 L 16.23103 3.47588" />
    <path d="M -17.12921 4.676 L -2.18158 14.95631 A 5 1.6832 180 0 0 4.22116 15.77161 L 4.50748 15.72813 L 14.83651 14.02614 L 15.38203 13.92147 A 5 1.6832 180 0 0 17.63833 12.51433" />
    <path d="M -17.12921 4.23344 L -2.18158 14.51375 A 5 1.6832 180 0 0 4.22116 15.32904 L 4.50748 15.28556 L 14.83651 13.58357 L 15.38203 13.4789 A 5 1.6832 180 0 0 17.63833 12.07176 L 17.63833 12.51433" />
    <path d="M 4.22116 15.77161 L 4.22116 15.32904" />
    <path d="M 4.50748 15.72813 L 4.50748 15.28556" />
    <path d="M 14.83651 14.02614 L 14.83651 13.58357" />
    <path d="M 15.38203 13.92147 L 15.38203 13.4789" />
    <path d="M 17.63833 12.07176 A 5 1.6832 180 0 0 17.12921 11.33176 L 10.45815 6.74371" />
    <path d="M 9.49939 6.08432 L 2.18158 1.05145 A 5 1.6832 180 0 0 -4.22116 0.23616 L -4.50748 0.27964 L -9.04085 1.02664" />
    <path d="M -10.45815 1.26017 L -14.83651 1.98163 L -15.38203 2.0863 A 5 1.6832 180 0 0 -17.63833 3.49344 L -17.63833 3.93601 A 5 1.6832 180 0 0 -17.12921 4.676 L -17.12921 4.23344" />
    <path d="M -17.63833 3.49344 A 5 1.6832 180 0 0 -17.12921 4.23344" />
    <path d="M -14.83329 2.81029 L -14.83329 2.36772 A 4 1.34656 180 0 0 -16.63833 3.49344 A 4 1.34656 180 0 0 -16.23103 4.08544 L -1.2834 14.36575 A 4 1.34656 180 0 0 3.83879 15.01798 L 4.06785 14.9832 L 14.39687 13.28121 L 14.83329 13.19747 A 4 1.34656 180 0 0 16.63833 12.07176 A 4 1.34656 180 0 0 16.23103 11.47976 L 9.55997 6.89171" />
    <path d="M -14.83329 2.81029 A 4 1.34656 180 0 0 -16.58395 3.71472" />
    <path d="M -14.39687 2.72656 L -14.39687 2.28399 L -14.83329 2.36772" />
    <path d="M -14.39687 2.72656 L -14.83329 2.81029" />
    <path d="M -4.06785 1.02457 L -4.06785 0.582 L -8.60122 1.329" />
    <path d="M -4.06785 1.02457 L -8.0821 1.68603" />
    <path d="M -9.49939 1.91956 L -14.39687 2.72656" />
    <path d="M -10.01851 1.56254 L -14.39687 2.28399" />
    <path d="M -3.83879 0.98978 L -3.83879 0.54721 L -4.06785 0.582" />
    <path d="M -3.83879 0.98978 L -4.06785 1.02457" />
    <path d="M 1.2834 1.64202 A 4 1.34656 180 0 0 -3.83879 0.98978" />
    <path d="M 1.2834 1.19945 A 4 1.34656 180 0 0 -3.83879 0.54721" />
    <path d="M 16.23103 11.92233 L 9.04085 6.97725" />
    <path d="M 8.0821 6.31786 L 1.2834 1.64202 L 1.2834 1.19945" />
    <path d="M 8.60122 6.23232 L 1.2834 1.19945" />
    <path d="M 16.58395 12.29304 A 4 1.34656 180 0 0 16.23103 11.92233 L 16.23103 11.47976" />
    <path d="M -17.12921 -11.33176 L -2.18158 -1.05145 L -2.18158 -1.49402 A 5 1.6832 180 0 0 4.22116 -0.67872 L 4.50748 -0.72221 L 14.83651 -2.4242 L 15.38203 -2.52886 A 5 1.6832 180 0 0 17.63833 -3.93601 L 17.63833 -3.49344" />
    <path d="M -17.12921 -11.77433 L -2.18158 -1.49402" />
    <path d="M 4.22116 -0.23616 L 4.22116 -0.67872" />
    <path d="M -2.18158 -1.05145 A 5 1.6832 180 0 0 4.22116 -0.23616 L 4.50748 -0.27964 L 14.83651 -1.98163 L 15.38203 -2.0863 A 5 1.6832 180 0 0 17.63833 -3.49344" />
    <path d="M 4.50748 -0.27964 L 4.50748 -0.72221" />
    <path d="M 14.83651 -1.98163 L 14.83651 -2.4242" />
    <path d="M 15.38203 -2.0863 L 15.38203 -2.52886" />
    <path d="M 17.63833 -3.93601 A 5 1.6832 180 0 0 17.12921 -4.676 L 2.18158 -14.95631 A 5 1.6832 180 0 0 -4.22116 -15.77161 L -4.50748 -15.72813 L -14.83651 -14.02614 L -15.38203 -13.92147 A 5 1.6832 180 0 0 -17.63833 -12.51433 L -17.63833 -12.07176 A 5 1.6832 180 0 0 -17.12921 -11.33176 L -17.12921 -11.77433" />
    <path d="M -17.63833 -12.51433 A 5 1.6832 180 0 0 -17.12921 -11.77433" />
    <path d="M -14.83329 -13.19747 L -14.83329 -13.64004 A 4 1.34656 180 0 0 -16.63833 -12.51433 A 4 1.34656 180 0 0 -16.23103 -11.92233 L -1.2834 -1.64202 A 4 1.34656 180 0 0 3.83879 -0.98978 L 4.06785 -1.02457 L 14.39687 -2.72656 L 14.83329 -2.81029 A 4 1.34656 180 0 0 16.63833 -3.93601 A 4 1.34656 180 0 0 16.23103 -4.528 L 1.2834 -14.80832 A 4 1.34656 180 0 0 -3.83879 -15.46055 L -4.06785 -15.42577 L -14.39687 -13.72378 L -14.83329 -13.64004" />
    <path d="M -14.83329 -13.19747 A 4 1.34656 180 0 0 -16.58395 -12.29304" />
    <path d="M -14.39687 -13.28121 L -14.39687 -13.72378" />
    <path d="M -14.39687 -13.28121 L -14.83329 -13.19747" />
    <path d="M -4.06785 -14.9832 L -4.06785 -15.42577" />
    <path d="M -4.06785 -14.9832 L -14.39687 -13.28121" />
    <path d="M -3.83879 -15.01798 L -3.83879 -15.46055" />
    <path d="M -3.83879 -15.01798 L -4.06785 -14.9832" />
    <path d="M 1.2834 -14.36575 A 4 1.34656 180 0 0 -3.83879 -15.01798" />
    <path d="M 16.23103 -4.08544 L 1.2834 -14.36575 L 1.2834 -14.80832" />
    <path d="M 16.58395 -3.71472 A 4 1.34656 180 0 0 16.23103 -4.08544 L 16.23103 -4.528" />
    <path d="M -2.18158 6.95243 L -2.18158 6.50986" />
    <path d="M -2.18158 14.95631 L -2.18158 14.51375" />
    <path d="M 17.63833 4.06788 L 17.63833 4.51044" />
    <path d="M -17.63833 -4.51044 L -17.63833 -4.06788" />
</svg>