<svg version="1.1" xmlns="http://www.w3.org/2000/svg" viewBox="-18.638328128630206 -17.324276315562336 37.27665625726041 34.64855263112467" fill="none" stroke="black" stroke-width="0.6%" vector-effect="non-scaling-stroke">
    <path d="M -2.18158 6.44135 L -17.12921 -4.11294 L -17.12921 -3.6719 L -2.18158 6.88238" />
    <path d="M -2.18158 6.44135 L -2.18158 6.88238" />
    <path d="M -1.2834 6.2894 L -16.23103 -4.26488 A 4 1.38245 360 0 1 -16.63833 -4.87266 A 4 1.38245 360 0 1 -14.61899 -6.07373 L -14.39687 -6.11434 L -10.84684 -6.71489" />
    <path d="M 3.6037 6.98969 A 4 1.38245 360 0 1 -1.2834 6.2894" />
    <path d="M 4.06785 6.92331 L 3.6037 6.98969" />
    <path d="M 14.39687 5.17596 L 4.06785 6.92331" />
    <path d="M 14.61899 5.13535 L 14.39687 5.17596" />
    <path d="M 16.23103 3.32651 A 4 1.38245 360 0 1 16.63833 3.93428 A 4 1.38245 360 0 1 14.61899 5.13535" />
    <path d="M 1.2834 -7.22778 L 8.87654 -1.86638" />
    <path d="M 10.3883 -0.79895 L 16.23103 3.32651 L 16.23103 3.76754 A 4 1.38245 360 0 1 16.58711 4.1548" />
    <path d="M -3.6037 -7.92807 A 4 1.38245 360 0 1 1.2834 -7.22778 L 1.2834 -6.78674" />
    <path d="M -4.06785 -7.86169 L -3.6037 -7.92807 L -3.6037 -7.48703 A 4 1.38245 360 0 1 1.2834 -6.78674" />
    <path d="M -8.87654 -7.04821 L -4.06785 -7.86169 L -4.06785 -7.42065 L -3.6037 -7.48703" />
    <path d="M 17.12921 3.17456 L 11.28648 -0.9509" />
    <path d="M 9.77472 -2.01832 L 2.18158 -7.37972" />
    <path d="M 17.12921 3.17456 A 5 1.72806 360 0 1 17.63833 3.93428 A 5 1.72806 360 0 1 15.11416 5.43561 L 15.11416 5.87665 L 14.83651 5.92742 L 4.50748 7.67477 L 3.9273 7.75775 A 5 1.72806 360 0 1 -2.18158 6.88238" />
    <path d="M 15.11416 5.43561 L 14.83651 5.48638 L 14.83651 5.92742" />
    <path d="M 4.50748 7.23373 L 14.83651 5.48638" />
    <path d="M 4.50748 7.23373 L 3.9273 7.31671 L 3.9273 7.75775" />
    <path d="M 3.9273 7.31671 A 5 1.72806 360 0 1 -2.18158 6.44135" />
    <path d="M -17.12921 -4.11294 A 5 1.72806 360 0 1 -17.63833 -4.87266 A 5 1.72806 360 0 1 -15.11416 -6.37399 L -14.83651 -6.42476 L -11.28648 -7.02531" />
    <path d="M -9.31618 -7.35863 L -4.50748 -8.17211 L -3.9273 -8.25509 A 5 1.72806 360 0 1 2.18158 -7.37972" />
    <path d="M 16.23103 3.76754 L 9.8844 -0.71371" />
    <path d="M 8.37265 -1.78114 L 1.2834 -6.78674" />
    <path d="M -14.39687 -5.6733 L -10.34294 -6.3591" />
    <path d="M -8.37265 -6.69241 L -4.06785 -7.42065" />
    <path d="M -14.61899 -5.63269 L -14.39687 -5.6733" />
    <path d="M -16.58711 -4.65214 A 4 1.38245 360 0 1 -14.61899 -5.63269" />
    <path d="M 17.63833 4.37532 A 5 1.72806 360 0 1 15.11416 5.87665" />
    <path d="M -17.12921 -3.6719 A 5 1.72806 360 0 1 -17.63833 -4.43162 L -17.63833 -4.87266" />
    <path d="M 4.50748 7.23373 L 4.50748 7.67477" />
    <path d="M -14.61899 -6.07373 L -14.61899 -5.63269" />
    <path d="M -14.39687 -6.11434 L -14.39687 -5.6733" />
    <path d="M -17.12921 -3.17456 L -2.18158 7.37972 A 5 1.72806 180 0 0 4.22116 8.21675 L 4.22116 7.77571 L 4.50748 7.73107 L 14.83651 5.98372 L 15.38203 5.87626 A 5 1.72806 180 0 0 17.63833 4.43162 A 5 1.72806 180 0 0 17.63766 4.40347" />
    <path d="M -17.12921 -3.17456 L -17.12921 -3.6156" />
    <path d="M -2.18158 6.93869 L -17.12921 -3.6156" />
    <path d="M -2.18158 7.37972 L -2.18158 6.93869 A 5 1.72806 180 0 0 4.22116 7.77571" />
    <path d="M -14.83329 -5.09 A 4 1.38245 180 0 0 -16.40091 -4.40347" />
    <path d="M -14.39687 -5.17596 L -14.83329 -5.09 L -14.83329 -5.53103 A 4 1.38245 180 0 0 -16.57308 -4.62399" />
    <path d="M -4.06785 -6.92331 L -7.80442 -6.2912" />
    <path d="M -9.77472 -5.95788 L -14.39687 -5.17596 L -14.39687 -5.617 L -14.83329 -5.53103" />
    <path d="M -3.83879 -6.95902 L -4.06785 -6.92331 L -4.06785 -7.36435" />
    <path d="M 1.2834 -6.2894 A 4 1.38245 180 0 0 -3.83879 -6.95902 L -3.83879 -7.40006 L -4.06785 -7.36435" />
    <path d="M 16.23103 4.26488 L 9.31618 -0.61758" />
    <path d="M 7.80442 -1.68501 L 1.2834 -6.2894 L 1.2834 -6.73044 A 4 1.38245 180 0 0 -3.83879 -7.40006" />
    <path d="M 16.40091 4.40347 A 4 1.38245 180 0 0 16.23103 4.26488 L 16.23103 3.82385" />
    <path d="M -17.63833 -3.93428 A 5 1.72806 180 0 0 -17.12921 -3.17456" />
    <path d="M 4.22116 8.21675 L 4.50748 8.17211 L 4.50748 7.73107" />
    <path d="M 4.50748 8.17211 L 14.83651 6.42476 L 14.83651 5.98372" />
    <path d="M 14.83651 6.42476 L 15.38203 6.3173 L 15.38203 5.87626" />
    <path d="M 15.38203 6.3173 A 5 1.72806 180 0 0 17.63833 4.87266" />
    <path d="M -17.63766 -4.40347 A 5 1.72806 180 0 0 -17.63833 -4.37532 A 5 1.72806 180 0 0 -17.12921 -3.6156" />
    <path d="M -14.39687 -5.617 L -10.27862 -6.31368" />
    <path d="M -8.30832 -6.64699 L -4.06785 -7.36435" />
    <path d="M 1.2834 -6.73044 L 8.30832 -1.77026" />
    <path d="M 9.82008 -0.70283 L 16.23103 3.82385" />
    <path d="M 16.57308 4.18295 A 4 1.38245 180 0 0 16.23103 3.82385" />
    <path d="M -2.18158 14.41756 L -17.12921 3.86327 A 5 1.72806 360 0 1 -17.63833 3.10355 A 5 1.72806 360 0 1 -15.11416 1.60222 L -14.83651 1.55145 L -11.28648 0.9509" />
    <path d="M -2.18158 14.41756 L -2.18158 14.85859" />
    <path d="M -17.12921 4.30431 L -2.18158 14.85859" />
    <path d="M -17.12921 3.86327 L -17.12921 4.30431 A 5 1.72806 360 0 1 -17.63833 3.54459 L -17.63833 3.10355" />
    <path d="M -1.2834 14.26561 L -16.23103 3.71133 A 4 1.38245 360 0 1 -16.63833 3.10355 A 4 1.38245 360 0 1 -14.61899 1.90248 L -14.61899 2.34352 L -14.39687 2.30291 L -10.34294 1.61711" />
    <path d="M 3.6037 14.9659 A 4 1.38245 360 0 1 -1.2834 14.26561" />
    <path d="M 4.06785 14.89952 L 3.6037 14.9659" />
    <path d="M 14.39687 13.15217 L 4.06785 14.89952" />
    <path d="M 14.61899 13.11156 L 14.39687 13.15217" />
    <path d="M 16.23103 11.30272 A 4 1.38245 360 0 1 16.63833 11.91049 A 4 1.38245 360 0 1 14.61899 13.11156" />
    <path d="M 1.2834 0.74843 L 8.87654 6.10983" />
    <path d="M 10.3883 7.17726 L 16.23103 11.30272 L 16.23103 11.74375 A 4 1.38245 360 0 1 16.58711 12.13101" />
    <path d="M -3.6037 0.04814 A 4 1.38245 360 0 1 1.2834 0.74843 L 1.2834 1.18947" />
    <path d="M -4.06785 0.11452 L -3.6037 0.04814 L -3.6037 0.48918 A 4 1.38245 360 0 1 1.2834 1.18947" />
    <path d="M -14.39687 1.86187 L -10.84684 1.26132" />
    <path d="M -8.87654 0.928 L -4.06785 0.11452 L -4.06785 0.55556 L -3.6037 0.48918" />
    <path d="M -14.61899 1.90248 L -14.39687 1.86187 L -14.39687 2.30291" />
    <path d="M 17.12921 11.15077 L 11.28648 7.02531" />
    <path d="M 9.77472 5.95788 L 2.18158 0.59649" />
    <path d="M 17.12921 11.15077 A 5 1.72806 360 0 1 17.63833 11.91049 A 5 1.72806 360 0 1 15.11416 13.41182 L 15.11416 13.85286 L 14.83651 13.90363 L 4.50748 15.65098 L 3.9273 15.73396 A 5 1.72806 360 0 1 -2.18158 14.85859" />
    <path d="M 15.11416 13.41182 L 14.83651 13.46259 L 14.83651 13.90363" />
    <path d="M 4.50748 15.20994 L 14.83651 13.46259" />
    <path d="M 4.50748 15.20994 L 3.9273 15.29292 L 3.9273 15.73396" />
    <path d="M 3.9273 15.29292 A 5 1.72806 360 0 1 -2.18158 14.41756" />
    <path d="M -9.31618 0.61758 L -4.50748 -0.1959 L -3.9273 -0.27888 A 5 1.72806 360 0 1 -1.78065 -0.36217" />
    <path d="M 1.78065 0.36217 A 5 1.72806 360 0 1 2.18158 0.59649" />
    <path d="M 16.23103 11.74375 L 9.8844 7.2625" />
    <path d="M 8.37265 6.19507 L 1.2834 1.18947" />
    <path d="M -8.37265 1.2838 L -4.06785 0.55556" />
    <path d="M -16.58711 3.32407 A 4 1.38245 360 0 1 -14.61899 2.34352" />
    <path d="M 17.63833 12.35153 A 5 1.72806 360 0 1 15.11416 13.85286" />
    <path d="M 4.50748 15.20994 L 4.50748 15.65098" />
    <path d="M 4.22116 16.19296 L 4.22116 15.75192 L 4.50748 15.70728 L 14.83651 13.95993 L 15.38203 13.85247 A 5 1.72806 180 0 0 17.63833 12.40783 L 17.63833 12.84887" />
    <path d="M -2.18158 15.35593 A 5 1.72806 180 0 0 4.22116 16.19296 L 4.50748 16.14832 L 14.83651 14.40097 L 14.83651 13.95993" />
    <path d="M -2.18158 14.9149 A 5 1.72806 180 0 0 4.22116 15.75192" />
    <path d="M -17.12921 4.80165 L -2.18158 15.35593 L -2.18158 14.9149 L -17.12921 4.36061" />
    <path d="M 4.50748 16.14832 L 4.50748 15.70728" />
    <path d="M -14.83329 2.88621 A 4 1.38245 180 0 0 -16.40091 3.57274" />
    <path d="M -14.39687 2.80025 L -14.83329 2.88621 L -14.83329 2.44518 A 4 1.38245 180 0 0 -16.57308 3.35222" />
    <path d="M -4.06785 1.0529 L -7.80442 1.68501" />
    <path d="M -9.77472 2.01832 L -14.39687 2.80025 L -14.39687 2.35921 L -14.83329 2.44518" />
    <path d="M -3.83879 1.01719 L -4.06785 1.0529 L -4.06785 0.61186" />
    <path d="M 1.2834 1.68681 A 4 1.38245 180 0 0 -3.83879 1.01719 L -3.83879 0.57615 L -4.06785 0.61186" />
    <path d="M 16.23103 12.24109 L 9.31618 7.35863" />
    <path d="M 7.80442 6.2912 L 1.2834 1.68681 L 1.2834 1.24577 A 4 1.38245 180 0 0 -3.83879 0.57615" />
    <path d="M 16.40091 12.37968 A 4 1.38245 180 0 0 16.23103 12.24109 L 16.23103 11.80006" />
    <path d="M 15.38203 14.29351 A 5 1.72806 180 0 0 17.63833 12.84887" />
    <path d="M -17.63833 4.04193 A 5 1.72806 180 0 0 -17.12921 4.80165 L -17.12921 4.36061" />
    <path d="M 14.83651 14.40097 L 15.38203 14.29351 L 15.38203 13.85247" />
    <path d="M -14.39687 2.35921 L -10.27862 1.66253" />
    <path d="M -8.30832 1.32922 L -4.06785 0.61186" />
    <path d="M 1.2834 1.24577 L 8.30832 6.20595" />
    <path d="M 9.82008 7.27338 L 16.23103 11.80006" />
    <path d="M 16.57308 12.15916 A 4 1.38245 180 0 0 16.23103 11.80006" />
    <path d="M 17.63833 12.40783 A 5 1.72806 180 0 0 17.63766 12.37968" />
    <path d="M -17.63766 3.57274 A 5 1.72806 180 0 0 -17.63833 3.60089 L -17.63833 4.04193" />
    <path d="M -17.63833 3.60089 A 5 1.72806 180 0 0 -17.12921 4.36061" />
    <path d="M -2.18158 -1.53486 L -17.12921 -12.08915 A 5 1.72806 360 0 1 -17.63833 -12.84887 A 5 1.72806 360 0 1 -15.11416 -14.3502 L -14.83651 -14.40097 L -4.50748 -16.14832 L -3.9273 -16.2313 A 5 1.72806 360 0 1 2.18158 -15.35593" />
    <path d="M -2.18158 -1.53486 L -2.18158 -1.09383" />
    <path d="M -17.12921 -11.64811 L -2.18158 -1.09383" />
    <path d="M -17.12921 -12.08915 L -17.12921 -11.64811 A 5 1.72806 360 0 1 -17.63833 -12.40783 L -17.63833 -12.84887" />
    <path d="M -1.2834 -1.68681 L -16.23103 -12.24109 A 4 1.38245 360 0 1 -16.63833 -12.84887 A 4 1.38245 360 0 1 -14.61899 -14.04993 L -14.61899 -13.6089 L -14.39687 -13.64951 L -4.06785 -15.39686 L -3.6037 -15.46324 A 4 1.38245 360 0 1 1.2834 -14.76295" />
    <path d="M 3.6037 -0.98652 A 4 1.38245 360 0 1 -1.2834 -1.68681" />
    <path d="M 4.06785 -1.0529 L 3.6037 -0.98652" />
    <path d="M 14.39687 -2.80025 L 4.06785 -1.0529" />
    <path d="M 14.61899 -2.84086 L 14.39687 -2.80025" />
    <path d="M 16.23103 -4.6497 A 4 1.38245 360 0 1 16.63833 -4.04193 A 4 1.38245 360 0 1 14.61899 -2.84086" />
    <path d="M 1.2834 -15.20399 L 16.23103 -4.6497 L 16.23103 -4.20867 A 4 1.38245 360 0 1 16.58711 -3.82141" />
    <path d="M -3.6037 -15.90428 A 4 1.38245 360 0 1 1.2834 -15.20399 L 1.2834 -14.76295" />
    <path d="M -4.06785 -15.8379 L -3.6037 -15.90428 L -3.6037 -15.46324" />
    <path d="M -14.39687 -14.09055 L -4.06785 -15.8379 L -4.06785 -15.39686" />
    <path d="M -14.61899 -14.04993 L -14.39687 -14.09055 L -14.39687 -13.64951" />
    <path d="M 17.12921 -4.80165 L 2.18158 -15.35593" />
    <path d="M 17.12921 -4.80165 A 5 1.72806 360 0 1 17.63833 -4.04193 A 5 1.72806 360 0 1 15.11416 -2.54059 L 15.11416 -2.09956 L 14.83651 -2.04879 L 4.50748 -0.30144 L 3.9273 -0.21846 A 5 1.72806 360 0 1 -2.18158 -1.09383" />
    <path d="M 15.11416 -2.54059 L 14.83651 -2.48983 L 14.83651 -2.04879" />
    <path d="M 4.50748 -0.74248 L 14.83651 -2.48983" />
    <path d="M 4.50748 -0.74248 L 3.9273 -0.6595 L 3.9273 -0.21846" />
    <path d="M 3.9273 -0.6595 A 5 1.72806 360 0 1 -2.18158 -1.53486" />
    <path d="M 16.23103 -4.20867 L 1.2834 -14.76295" />
    <path d="M -16.58711 -12.62835 A 4 1.38245 360 0 1 -14.61899 -13.6089" />
    <path d="M 17.63833 -3.60089 A 5 1.72806 360 0 1 15.11416 -2.09956" />
    <path d="M 4.50748 -0.74248 L 4.50748 -0.30144" />
    <path d="M -17.12921 -11.15077 L -2.18158 -0.59649 A 5 1.72806 180 0 0 4.22116 0.24054 L 4.22116 -0.2005 L 4.50748 -0.24514 L 14.83651 -1.99249 L 15.38203 -2.09995 A 5 1.72806 180 0 0 17.63833 -3.54459 L 17.63833 -3.10355" />
    <path d="M -17.12921 -11.15077 L -17.12921 -11.59181" />
    <path d="M -2.18158 -1.03752 L -17.12921 -11.59181" />
    <path d="M -2.18158 -0.59649 L -2.18158 -1.03752 A 5 1.72806 180 0 0 4.22116 -0.2005" />
    <path d="M -14.83329 -13.0662 A 4 1.38245 180 0 0 -16.40091 -12.37968" />
    <path d="M -14.39687 -13.15217 L -14.83329 -13.0662 L -14.83329 -13.50724 A 4 1.38245 180 0 0 -16.57308 -12.6002" />
    <path d="M -4.06785 -14.89952 L -14.39687 -13.15217 L -14.39687 -13.59321 L -14.83329 -13.50724" />
    <path d="M -3.83879 -14.93523 L -4.06785 -14.89952 L -4.06785 -15.34056" />
    <path d="M 1.2834 -14.26561 A 4 1.38245 180 0 0 -3.83879 -14.93523 L -3.83879 -15.37627 L -4.06785 -15.34056" />
    <path d="M 16.23103 -3.71133 L 1.2834 -14.26561 L 1.2834 -14.70665 A 4 1.38245 180 0 0 -3.83879 -15.37627" />
    <path d="M 16.40091 -3.57274 A 4 1.38245 180 0 0 16.23103 -3.71133 L 16.23103 -4.15236" />
    <path d="M -17.63833 -11.91049 A 5 1.72806 180 0 0 -17.12921 -11.15077" />
    <path d="M 4.22116 0.24054 L 4.50748 0.1959 L 4.50748 -0.24514" />
    <path d="M 4.50748 0.1959 L 14.83651 -1.55145 L 14.83651 -1.99249" />
    <path d="M 14.83651 -1.55145 L 15.38203 -1.65891 L 15.38203 -2.09995" />
    <path d="M 15.38203 -1.65891 A 5 1.72806 180 0 0 17.63833 -3.10355" />
    <path d="M -17.63766 -12.37968 A 5 1.72806 180 0 0 -17.63833 -12.35153 L -17.63833 -11.91049" />
    <path d="M -17.63833 -12.35153 A 5 1.72806 180 0 0 -17.12921 -11.59181" />
    <path d="M -14.39687 -13.59321 L -4.06785 -15.34056" />
    <path d="M 1.2834 -14.70665 L 16.23103 -4.15236" />
    <path d="M 16.57308 -3.79326 A 4 1.38245 180 0 0 16.23103 -4.15236" />
    <path d="M 17.63833 -3.54459 A 5 1.72806 180 0 0 17.63766 -3.57274" />
    <path d="M 17.63833 4.37532 L 17.63833 3.93428" />
    <path d="M -17.63833 -4.37532 L -17.63833 -3.93428" />
    <path d="M 17.63833 4.43162 L 17.63833 4.87266" />
    <path d="M 17.63833 12.35153 L 17.63833 11.91049" />
    <path d="M 17.63833 -3.60089 L 17.63833 -4.04193" />
</svg>